{"glyphs":{"0":{"ha":929,"x_min":0,"x_max":0,"o":"m 464 872 b 90 431 232 872 90 689 b 464 -12 90 174 235 -12 b 839 431 693 -12 839 174 b 464 872 839 683 699 872 z m 464 750 b 621 690 529 750 582 729 l 236 306 b 222 431 226 343 222 385 b 464 750 222 614 300 750 z m 464 110 b 294 185 392 110 335 136 l 688 576 b 707 431 700 535 707 486 b 464 110 707 233 625 110 z "},"1":{"ha":629,"x_min":0,"x_max":0,"o":"m 389 861 l 263 861 b 67 675 263 757 171 675 l 67 543 b 256 608 140 543 204 567 l 256 125 l 58 125 l 58 0 l 560 0 l 560 125 l 389 125 z "},"2":{"ha":731,"x_min":0,"x_max":0,"o":"m 213 125 b 261 326 213 199 229 264 b 364 310 296 315 318 310 b 643 585 507 310 643 429 b 351 875 643 774 494 875 b 46 671 231 875 108 824 l 168 600 b 347 751 200 718 283 751 b 508 599 458 751 508 671 b 353 435 508 513 463 435 b 222 497 294 435 258 458 b 76 17 133 392 76 210 l 76 0 l 643 0 l 643 260 l 525 260 l 525 125 z "},"3":{"ha":717,"x_min":0,"x_max":0,"o":"m 81 861 l 81 729 l 439 729 l 351 542 l 153 542 l 153 417 l 351 417 b 496 276 451 417 496 351 b 329 111 496 196 440 111 b 151 229 264 111 183 138 l 40 164 b 328 -14 90 46 210 -14 b 625 279 504 -14 625 104 b 485 510 625 400 557 475 l 640 861 z "},"4":{"ha":682,"x_min":0,"x_max":0,"o":"m 581 567 l 450 567 l 450 307 l 196 307 b 572 763 218 536 314 704 l 524 885 b 49 176 218 824 39 556 l 450 176 l 450 0 l 581 0 z "},"5":{"ha":731,"x_min":0,"x_max":0,"o":"m 525 738 l 525 603 l 643 603 l 643 863 l 76 863 l 76 846 b 222 365 76 653 133 471 b 353 428 258 404 294 428 b 508 264 463 428 508 350 b 347 111 508 192 458 111 b 168 263 283 111 200 144 l 46 192 b 351 -12 108 39 231 -12 b 643 278 494 -12 643 89 b 364 553 643 433 507 553 b 261 536 318 553 296 547 b 213 738 229 599 213 664 z "},"6":{"ha":718,"x_min":0,"x_max":0,"o":"m 375 540 b 204 482 311 540 251 518 b 186 563 193 506 186 533 b 372 749 186 665 269 749 b 546 628 451 749 519 699 l 658 689 b 372 875 610 799 500 875 b 60 563 200 875 60 735 b 122 375 60 492 83 428 b 99 264 107 342 99 304 b 375 -12 99 111 222 -12 b 651 264 528 -12 651 111 b 375 540 651 417 528 540 z m 375 115 b 226 264 293 115 226 182 b 375 413 226 346 293 413 b 524 264 457 413 524 346 b 375 115 524 182 457 115 z "},"7":{"ha":682,"x_min":0,"x_max":0,"o":"m 47 610 l 165 610 l 165 726 l 458 726 b 207 46 388 610 207 389 l 207 0 l 339 0 l 339 39 b 617 731 339 338 476 557 l 617 860 l 47 860 z "},"8":{"ha":736,"x_min":0,"x_max":0,"o":"m 617 478 b 644 599 635 514 644 556 b 368 875 644 751 521 875 b 92 599 215 875 92 751 b 119 478 92 556 101 514 b 49 274 75 431 49 361 b 368 -12 49 108 185 -12 b 688 274 551 -12 688 108 b 617 478 688 361 661 431 z m 368 747 b 517 599 450 747 517 681 b 368 450 517 517 450 450 b 219 599 286 450 219 517 b 368 747 219 681 286 747 z m 368 113 b 186 288 261 113 186 171 b 206 375 186 317 192 347 b 368 322 251 342 307 322 b 531 375 429 322 485 342 b 550 288 544 347 550 317 b 368 113 550 171 475 113 z "},"9":{"ha":718,"x_min":0,"x_max":0,"o":"m 596 504 b 619 615 611 538 619 575 b 343 892 619 768 496 892 b 67 615 190 892 67 768 b 343 339 67 463 190 339 b 514 397 407 339 467 361 b 532 317 525 374 532 346 b 346 131 532 214 449 131 b 172 251 267 131 199 181 l 60 190 b 346 4 108 81 218 4 b 658 317 518 4 658 144 b 596 504 658 388 635 451 z m 343 467 b 194 615 261 467 194 533 b 343 764 194 697 261 764 b 492 615 425 764 492 697 b 343 467 492 533 425 467 z "}," ":{"ha":278,"x_min":0,"x_max":0,"o":""},"A":{"ha":746,"x_min":0,"x_max":0,"o":"m 372 875 b 90 596 218 875 90 750 l 90 0 l 222 0 l 222 360 b 372 313 265 326 317 313 b 524 361 428 313 479 328 l 524 0 l 656 0 l 656 596 b 372 875 656 750 526 875 z m 372 439 b 222 592 289 439 222 500 b 372 750 222 683 289 750 b 524 592 456 750 524 683 b 372 439 524 500 456 439 z "},"Á":{"ha":746,"x_min":0,"x_max":0,"o":"m 457 1113 l 232 1024 l 263 935 l 492 1015 z m 372 875 b 90 596 218 875 90 750 l 90 0 l 222 0 l 222 360 b 372 313 265 326 317 313 b 524 361 428 313 479 328 l 524 0 l 656 0 l 656 596 b 372 875 656 750 526 875 z m 372 439 b 222 592 289 439 222 500 b 372 750 222 683 289 750 b 524 592 456 750 524 683 b 372 439 524 500 456 439 z "},"Ă":{"ha":746,"x_min":0,"x_max":0,"o":"m 372 953 b 536 1118 463 953 536 1028 l 439 1118 b 372 1050 439 1081 408 1050 b 304 1118 335 1050 304 1081 l 207 1118 b 372 953 207 1028 282 953 z m 372 875 b 90 596 218 875 90 750 l 90 0 l 222 0 l 222 360 b 372 313 265 326 317 313 b 524 361 428 313 479 328 l 524 0 l 656 0 l 656 596 b 372 875 656 750 526 875 z m 372 439 b 222 592 289 439 222 500 b 372 750 222 683 289 750 b 524 592 456 750 524 683 b 372 439 524 500 456 439 z "},"Â":{"ha":746,"x_min":0,"x_max":0,"o":"m 547 1024 l 372 1097 l 197 1024 l 197 922 l 372 992 l 547 922 z m 372 875 b 90 596 218 875 90 750 l 90 0 l 222 0 l 222 360 b 372 313 265 326 317 313 b 524 361 428 313 479 328 l 524 0 l 656 0 l 656 596 b 372 875 656 750 526 875 z m 372 439 b 222 592 289 439 222 500 b 372 750 222 683 289 750 b 524 592 456 750 524 683 b 372 439 524 500 456 439 z "},"Ä":{"ha":746,"x_min":0,"x_max":0,"o":"m 207 1063 l 207 936 l 335 936 l 335 1063 z m 411 1063 l 411 936 l 539 936 l 539 1063 z m 372 875 b 90 596 218 875 90 750 l 90 0 l 222 0 l 222 360 b 372 313 265 326 317 313 b 524 361 428 313 479 328 l 524 0 l 656 0 l 656 596 b 372 875 656 750 526 875 z m 372 439 b 222 592 289 439 222 500 b 372 750 222 683 289 750 b 524 592 456 750 524 683 b 372 439 524 500 456 439 z "},"À":{"ha":746,"x_min":0,"x_max":0,"o":"m 288 1113 l 253 1015 l 482 935 l 513 1024 z m 372 875 b 90 596 218 875 90 750 l 90 0 l 222 0 l 222 360 b 372 313 265 326 317 313 b 524 361 428 313 479 328 l 524 0 l 656 0 l 656 596 b 372 875 656 750 526 875 z m 372 439 b 222 592 289 439 222 500 b 372 750 222 683 289 750 b 524 592 456 750 524 683 b 372 439 524 500 456 439 z "},"Ā":{"ha":746,"x_min":0,"x_max":0,"o":"m 222 1054 l 222 964 l 522 964 l 522 1054 z m 372 875 b 90 596 218 875 90 750 l 90 0 l 222 0 l 222 360 b 372 313 265 326 317 313 b 524 361 428 313 479 328 l 524 0 l 656 0 l 656 596 b 372 875 656 750 526 875 z m 372 439 b 222 592 289 439 222 500 b 372 750 222 683 289 750 b 524 592 456 750 524 683 b 372 439 524 500 456 439 z "},"Ą":{"ha":746,"x_min":0,"x_max":0,"o":"m 576 -75 b 654 0 571 -46 592 -21 l 656 0 l 656 596 b 372 875 656 750 526 875 b 90 596 218 875 90 750 l 90 0 l 222 0 l 222 360 b 372 313 265 326 317 313 b 524 361 428 313 479 328 l 524 0 l 522 0 b 463 -97 478 -29 463 -61 b 607 -204 463 -151 504 -204 b 683 -196 629 -204 656 -201 l 683 -99 b 576 -75 631 -114 583 -108 z m 372 439 b 222 592 289 439 222 500 b 372 750 222 683 289 750 b 524 592 456 750 524 683 b 372 439 524 500 456 439 z "},"Å":{"ha":746,"x_min":0,"x_max":0,"o":"m 372 908 b 501 1039 443 908 501 967 b 372 1168 501 1110 443 1168 b 242 1039 300 1168 242 1110 b 372 908 242 967 300 908 z m 372 1086 b 419 1039 399 1086 419 1065 b 372 990 419 1011 399 990 b 324 1039 344 990 324 1011 b 372 1086 324 1065 344 1086 z m 372 875 b 90 596 218 875 90 750 l 90 0 l 222 0 l 222 360 b 372 313 265 326 317 313 b 524 361 428 313 479 328 l 524 0 l 656 0 l 656 596 b 372 875 656 750 526 875 z m 372 439 b 222 592 289 439 222 500 b 372 750 222 683 289 750 b 524 592 456 750 524 683 b 372 439 524 500 456 439 z "},"Ã":{"ha":746,"x_min":0,"x_max":0,"o":"m 278 993 b 325 1003 285 1007 301 1018 l 375 969 b 557 1028 444 925 517 944 l 574 1058 l 488 1097 l 471 1064 b 424 1054 464 1050 447 1039 l 374 1088 b 194 1036 306 1132 232 1111 l 175 999 l 261 958 z m 372 875 b 90 596 218 875 90 750 l 90 0 l 222 0 l 222 360 b 372 313 265 326 317 313 b 524 361 428 313 479 328 l 524 0 l 656 0 l 656 596 b 372 875 656 750 526 875 z m 372 439 b 222 592 289 439 222 500 b 372 750 222 683 289 750 b 524 592 456 750 524 683 b 372 439 524 500 456 439 z "},"Æ":{"ha":1124,"x_min":0,"x_max":0,"o":"m 958 317 l 958 442 l 656 442 l 656 597 b 800 749 656 696 715 749 b 964 631 865 749 932 722 l 1075 696 b 801 874 1025 814 919 874 b 586 778 715 874 638 838 b 372 875 533 838 457 875 b 90 596 218 875 90 750 l 90 0 l 222 0 l 222 368 b 372 321 265 335 317 321 l 524 321 l 524 0 l 1042 0 l 1042 125 l 656 125 l 656 317 z m 372 439 b 222 592 289 439 222 500 b 372 750 222 683 289 750 b 524 592 456 750 524 683 l 524 439 z "},"B":{"ha":739,"x_min":0,"x_max":0,"o":"m 619 506 b 356 875 675 657 578 875 b 88 607 204 875 88 758 l 88 0 l 326 0 b 690 308 554 0 690 139 b 619 506 690 381 667 447 z m 219 596 b 356 746 219 679 272 746 b 503 596 458 746 503 671 b 307 453 503 500 425 453 l 219 453 z m 219 125 l 219 324 l 297 324 b 542 401 415 324 489 353 b 339 125 604 283 521 125 z "},"C":{"ha":690,"x_min":0,"x_max":0,"o":"m 222 599 b 367 750 222 697 282 750 b 519 626 432 750 488 717 l 642 683 b 368 875 592 811 486 875 b 90 608 190 875 90 765 l 90 0 l 622 0 l 622 264 l 504 264 l 504 125 l 222 125 z "},"Ć":{"ha":690,"x_min":0,"x_max":0,"o":"m 228 1024 l 258 935 l 488 1015 l 453 1113 z m 222 599 b 367 750 222 697 282 750 b 519 626 432 750 488 717 l 642 683 b 368 875 592 811 486 875 b 90 608 190 875 90 765 l 90 0 l 622 0 l 622 264 l 504 264 l 504 125 l 222 125 z "},"Č":{"ha":690,"x_min":0,"x_max":0,"o":"m 368 936 l 543 1010 l 543 1111 l 368 1042 l 193 1111 l 193 1010 z m 222 599 b 367 750 222 697 282 750 b 519 626 432 750 488 717 l 642 683 b 368 875 592 811 486 875 b 90 608 190 875 90 765 l 90 0 l 622 0 l 622 264 l 504 264 l 504 125 l 222 125 z "},"Ç":{"ha":690,"x_min":0,"x_max":0,"o":"m 222 125 l 222 599 b 367 750 222 697 282 750 b 519 626 432 750 488 717 l 642 683 b 368 875 592 811 486 875 b 90 608 190 875 90 765 l 90 0 l 313 0 l 247 -146 l 372 -192 l 426 0 l 622 0 l 622 264 l 504 264 l 504 125 z "},"D":{"ha":764,"x_min":0,"x_max":0,"o":"m 101 863 l 101 0 l 417 0 b 674 278 547 0 674 83 l 674 585 b 419 863 674 778 549 863 z m 542 271 b 417 125 542 169 478 125 l 233 125 l 233 738 l 407 738 b 542 589 472 738 542 689 z "},"Ð":{"ha":764,"x_min":0,"x_max":0,"o":"m 101 863 l 101 494 l 33 494 l 33 369 l 101 369 l 101 0 l 417 0 b 674 278 547 0 674 83 l 674 585 b 419 863 674 778 549 863 z m 542 271 b 417 125 542 169 478 125 l 233 125 l 233 369 l 396 369 l 424 494 l 233 494 l 233 738 l 407 738 b 542 589 472 738 542 689 z "},"Ď":{"ha":764,"x_min":0,"x_max":0,"o":"m 350 936 l 525 1010 l 525 1111 l 350 1042 l 175 1111 l 175 1010 z m 101 863 l 101 0 l 417 0 b 674 278 547 0 674 83 l 674 585 b 419 863 674 778 549 863 z m 542 271 b 417 125 542 169 478 125 l 233 125 l 233 738 l 407 738 b 542 589 472 738 542 689 z "},"Đ":{"ha":764,"x_min":0,"x_max":0,"o":"m 101 863 l 101 494 l 33 494 l 33 369 l 101 369 l 101 0 l 417 0 b 674 278 547 0 674 83 l 674 585 b 419 863 674 778 549 863 z m 542 271 b 417 125 542 169 478 125 l 233 125 l 233 369 l 396 369 l 424 494 l 233 494 l 233 738 l 407 738 b 542 589 472 738 542 689 z "},"E":{"ha":690,"x_min":0,"x_max":0,"o":"m 525 483 l 222 483 l 222 599 b 367 750 222 697 282 750 b 519 626 432 750 488 717 l 642 683 b 368 875 592 811 486 875 b 90 608 190 875 90 765 l 90 0 l 608 0 l 608 125 l 222 125 l 222 358 l 497 358 z "},"É":{"ha":690,"x_min":0,"x_max":0,"o":"m 228 1024 l 258 935 l 488 1015 l 453 1113 z m 525 483 l 222 483 l 222 599 b 367 750 222 697 282 750 b 519 626 432 750 488 717 l 642 683 b 368 875 592 811 486 875 b 90 608 190 875 90 765 l 90 0 l 608 0 l 608 125 l 222 125 l 222 358 l 497 358 z "},"Ě":{"ha":690,"x_min":0,"x_max":0,"o":"m 368 936 l 543 1010 l 543 1111 l 368 1042 l 193 1111 l 193 1010 z m 525 483 l 222 483 l 222 599 b 367 750 222 697 282 750 b 519 626 432 750 488 717 l 642 683 b 368 875 592 811 486 875 b 90 608 190 875 90 765 l 90 0 l 608 0 l 608 125 l 222 125 l 222 358 l 497 358 z "},"Ê":{"ha":690,"x_min":0,"x_max":0,"o":"m 193 922 l 368 992 l 543 922 l 543 1024 l 368 1097 l 193 1024 z m 525 483 l 222 483 l 222 599 b 367 750 222 697 282 750 b 519 626 432 750 488 717 l 642 683 b 368 875 592 811 486 875 b 90 608 190 875 90 765 l 90 0 l 608 0 l 608 125 l 222 125 l 222 358 l 497 358 z "},"Ë":{"ha":690,"x_min":0,"x_max":0,"o":"m 331 936 l 331 1063 l 203 1063 l 203 936 z m 407 936 l 535 936 l 535 1063 l 407 1063 z m 525 483 l 222 483 l 222 599 b 367 750 222 697 282 750 b 519 626 432 750 488 717 l 642 683 b 368 875 592 811 486 875 b 90 608 190 875 90 765 l 90 0 l 608 0 l 608 125 l 222 125 l 222 358 l 497 358 z "},"Ė":{"ha":690,"x_min":0,"x_max":0,"o":"m 306 974 l 429 974 l 429 1097 l 306 1097 z m 525 483 l 222 483 l 222 599 b 367 750 222 697 282 750 b 519 626 432 750 488 717 l 642 683 b 368 875 592 811 486 875 b 90 608 190 875 90 765 l 90 0 l 608 0 l 608 125 l 222 125 l 222 358 l 497 358 z "},"È":{"ha":690,"x_min":0,"x_max":0,"o":"m 249 1015 l 478 935 l 508 1024 l 283 1113 z m 525 483 l 222 483 l 222 599 b 367 750 222 697 282 750 b 519 626 432 750 488 717 l 642 683 b 368 875 592 811 486 875 b 90 608 190 875 90 765 l 90 0 l 608 0 l 608 125 l 222 125 l 222 358 l 497 358 z "},"Ē":{"ha":690,"x_min":0,"x_max":0,"o":"m 218 964 l 518 964 l 518 1054 l 218 1054 z m 525 483 l 222 483 l 222 599 b 367 750 222 697 282 750 b 519 626 432 750 488 717 l 642 683 b 368 875 592 811 486 875 b 90 608 190 875 90 765 l 90 0 l 608 0 l 608 125 l 222 125 l 222 358 l 497 358 z "},"Ę":{"ha":690,"x_min":0,"x_max":0,"o":"m 531 -75 b 608 0 525 -46 546 -21 l 608 125 l 222 125 l 222 358 l 497 358 l 525 483 l 222 483 l 222 599 b 367 750 222 697 282 750 b 519 626 432 750 488 717 l 642 683 b 368 875 592 811 486 875 b 90 608 190 875 90 765 l 90 0 l 476 0 b 417 -97 432 -29 417 -61 b 561 -204 417 -151 458 -204 b 638 -196 583 -204 610 -201 l 638 -99 b 531 -75 585 -114 538 -108 z "},"F":{"ha":663,"x_min":0,"x_max":0,"o":"m 222 599 b 367 750 222 697 282 750 b 519 626 432 750 488 717 l 642 683 b 368 875 592 811 486 875 b 90 608 190 875 90 765 l 90 0 l 222 0 l 222 317 l 496 317 l 524 442 l 222 442 z "},"G":{"ha":746,"x_min":0,"x_max":0,"o":"m 519 349 l 519 125 l 222 125 l 222 599 b 381 750 222 697 296 750 b 533 626 446 750 501 717 l 656 683 b 382 875 606 811 500 875 b 90 608 204 875 90 765 l 90 0 l 650 0 l 650 474 l 369 474 l 342 349 z "},"Ģ":{"ha":746,"x_min":0,"x_max":0,"o":"m 519 349 l 519 125 l 222 125 l 222 599 b 381 750 222 697 296 750 b 533 626 446 750 501 717 l 656 683 b 382 875 606 811 500 875 b 90 608 204 875 90 765 l 90 0 l 650 0 l 650 474 l 369 474 l 342 349 z m 310 -69 b 231 -300 308 -150 283 -232 l 322 -346 b 433 -69 388 -267 428 -176 z "},"H":{"ha":786,"x_min":0,"x_max":0,"o":"m 553 579 b 393 419 553 490 482 419 b 233 576 306 419 235 489 l 235 860 l 101 860 l 101 0 l 231 0 l 232 344 b 393 294 276 313 332 294 b 553 344 454 294 508 313 l 553 0 l 685 0 l 685 860 l 553 860 z "},"I":{"ha":335,"x_min":0,"x_max":0,"o":"m 101 861 l 101 0 l 233 0 l 233 861 z "},"Í":{"ha":335,"x_min":0,"x_max":0,"o":"m 25 1024 l 56 935 l 285 1015 l 250 1113 z m 101 861 l 101 0 l 233 0 l 233 861 z "},"Î":{"ha":335,"x_min":0,"x_max":0,"o":"m -10 922 l 165 992 l 340 922 l 340 1024 l 165 1097 l -10 1024 z m 101 861 l 101 0 l 233 0 l 233 861 z "},"Ï":{"ha":335,"x_min":0,"x_max":0,"o":"m 128 936 l 128 1063 l 0 1063 l 0 936 z m 204 936 l 332 936 l 332 1063 l 204 1063 z m 101 861 l 101 0 l 233 0 l 233 861 z "},"Ì":{"ha":335,"x_min":0,"x_max":0,"o":"m 46 1015 l 275 935 l 306 1024 l 81 1113 z m 101 861 l 101 0 l 233 0 l 233 861 z "},"Ī":{"ha":335,"x_min":0,"x_max":0,"o":"m 15 964 l 315 964 l 315 1054 l 15 1054 z m 101 861 l 101 0 l 233 0 l 233 861 z "},"Į":{"ha":335,"x_min":0,"x_max":0,"o":"m 156 -75 b 233 0 150 -46 171 -21 l 233 861 l 101 861 l 101 0 b 42 -97 57 -29 42 -61 b 186 -204 42 -151 83 -204 b 263 -196 208 -204 235 -201 l 263 -99 b 156 -75 210 -114 163 -108 z "},"J":{"ha":690,"x_min":0,"x_max":0,"o":"m 129 861 l 129 596 l 247 596 l 247 736 l 468 736 l 468 263 b 324 111 468 164 408 111 b 160 229 258 111 192 138 l 49 164 b 322 -14 99 46 204 -14 b 600 253 500 -14 600 96 l 600 861 z "},"K":{"ha":761,"x_min":0,"x_max":0,"o":"m 497 439 b 657 854 607 499 657 656 l 657 864 l 528 864 l 528 854 b 233 442 528 615 439 442 l 233 861 l 101 861 l 101 0 l 233 0 l 233 325 l 514 325 l 550 0 l 678 0 l 628 439 z "},"Ķ":{"ha":761,"x_min":0,"x_max":0,"o":"m 497 439 b 657 854 607 499 657 656 l 657 864 l 528 864 l 528 854 b 233 442 528 615 439 442 l 233 861 l 101 861 l 101 0 l 233 0 l 233 325 l 514 325 l 550 0 l 678 0 l 628 439 z m 322 -346 b 433 -69 388 -267 428 -176 l 310 -69 b 231 -300 308 -150 283 -232 z "},"L":{"ha":556,"x_min":0,"x_max":0,"o":"m 233 861 l 101 861 l 101 0 l 486 0 l 514 125 l 233 125 z "},"Ĺ":{"ha":556,"x_min":0,"x_max":0,"o":"m 65 1024 l 96 935 l 325 1015 l 290 1113 z m 233 861 l 101 861 l 101 0 l 486 0 l 514 125 l 233 125 z "},"Ľ":{"ha":556,"x_min":0,"x_max":0,"o":"m 233 861 l 101 861 l 101 0 l 486 0 l 514 125 l 233 125 z m 351 861 b 328 668 350 825 342 746 l 406 639 b 469 861 440 728 464 811 z "},"Ļ":{"ha":556,"x_min":0,"x_max":0,"o":"m 233 861 l 101 861 l 101 0 l 486 0 l 514 125 l 233 125 z m 310 -69 b 231 -300 308 -150 283 -232 l 322 -346 b 433 -69 388 -267 428 -176 z "},"Ł":{"ha":576,"x_min":0,"x_max":0,"o":"m 233 428 l 346 474 l 346 585 l 233 539 l 233 861 l 101 861 l 101 485 l 8 446 l 8 335 l 101 374 l 101 0 l 486 0 l 514 125 l 233 125 z "},"M":{"ha":1164,"x_min":0,"x_max":0,"o":"m 1011 875 b 644 451 754 875 650 794 l 640 169 b 582 111 640 132 614 111 b 524 169 550 111 524 132 l 519 451 b 153 875 514 794 410 875 l 101 875 l 101 0 l 233 0 l 233 746 b 389 368 342 746 389 683 l 389 258 b 582 -14 389 124 418 -12 b 775 258 746 -12 775 124 l 775 368 b 931 746 775 683 822 746 l 931 0 l 1063 0 l 1063 875 z "},"N":{"ha":882,"x_min":0,"x_max":0,"o":"m 656 111 b 533 286 579 118 549 190 l 494 535 b 213 875 463 736 413 875 l 101 875 l 101 0 l 226 0 l 226 750 b 368 525 326 744 347 650 l 411 261 b 672 -14 438 103 500 -14 l 781 -14 l 781 861 l 656 861 z "},"Ń":{"ha":882,"x_min":0,"x_max":0,"o":"m 301 1022 l 332 933 l 561 1014 l 526 1111 z m 656 111 b 533 286 579 118 549 190 l 494 535 b 213 875 463 736 413 875 l 101 875 l 101 0 l 226 0 l 226 750 b 368 525 326 744 347 650 l 411 261 b 672 -14 438 103 500 -14 l 781 -14 l 781 861 l 656 861 z "},"Ň":{"ha":882,"x_min":0,"x_max":0,"o":"m 442 935 l 617 1008 l 617 1110 l 442 1040 l 267 1110 l 267 1008 z m 656 111 b 533 286 579 118 549 190 l 494 535 b 213 875 463 736 413 875 l 101 875 l 101 0 l 226 0 l 226 750 b 368 525 326 744 347 650 l 411 261 b 672 -14 438 103 500 -14 l 781 -14 l 781 861 l 656 861 z "},"Ņ":{"ha":882,"x_min":0,"x_max":0,"o":"m 656 111 b 533 286 579 118 549 190 l 494 535 b 213 875 463 736 413 875 l 101 875 l 101 0 l 226 0 l 226 750 b 368 525 326 744 347 650 l 411 261 b 672 -14 438 103 500 -14 l 781 -14 l 781 861 l 656 861 z m 310 -69 b 231 -300 308 -150 283 -232 l 322 -346 b 433 -69 388 -267 428 -176 z "},"Ŋ":{"ha":882,"x_min":0,"x_max":0,"o":"m 656 861 l 656 111 b 533 286 579 118 549 190 l 494 535 b 213 875 463 736 413 875 l 101 875 l 101 0 l 226 0 l 226 750 b 368 525 326 744 347 650 l 411 261 b 656 -14 436 108 496 -6 l 656 -32 b 575 -144 656 -106 635 -144 b 500 -97 556 -144 517 -129 l 407 -192 b 575 -267 449 -247 519 -267 b 779 -19 717 -267 779 -174 l 779 -14 l 781 -14 l 781 861 z "},"Ñ":{"ha":882,"x_min":0,"x_max":0,"o":"m 540 1063 b 493 1053 533 1049 517 1038 l 443 1086 b 264 1035 375 1131 301 1110 l 244 997 l 331 957 l 347 992 b 394 1001 354 1006 371 1017 l 444 968 b 626 1026 514 924 586 943 l 643 1057 l 557 1096 z m 656 111 b 533 286 579 118 549 190 l 494 535 b 213 875 463 736 413 875 l 101 875 l 101 0 l 226 0 l 226 750 b 368 525 326 744 347 650 l 411 261 b 672 -14 438 103 500 -14 l 781 -14 l 781 861 l 656 861 z "},"O":{"ha":951,"x_min":0,"x_max":0,"o":"m 475 872 b 60 431 243 872 60 689 b 475 -12 60 174 246 -12 b 892 431 704 -12 892 160 b 475 872 892 683 710 872 z m 475 747 b 675 665 553 747 622 718 b 475 596 622 621 544 596 b 278 664 408 596 331 621 b 475 747 328 717 396 747 z m 475 113 b 192 431 319 113 192 233 b 213 558 192 476 199 519 b 475 468 289 501 381 468 b 739 558 569 468 663 501 b 760 431 753 521 760 478 b 475 113 760 233 636 113 z "},"Ó":{"ha":951,"x_min":0,"x_max":0,"o":"m 560 1125 l 335 1036 l 365 947 l 594 1028 z m 475 872 b 60 431 243 872 60 689 b 475 -12 60 174 246 -12 b 892 431 704 -12 892 160 b 475 872 892 683 710 872 z m 475 747 b 675 665 553 747 622 718 b 475 596 622 621 544 596 b 278 664 408 596 331 621 b 475 747 328 717 396 747 z m 475 113 b 192 431 319 113 192 233 b 213 558 192 476 199 519 b 475 468 289 501 381 468 b 739 558 569 468 663 501 b 760 431 753 521 760 478 b 475 113 760 233 636 113 z "},"Ô":{"ha":951,"x_min":0,"x_max":0,"o":"m 650 1036 l 475 1110 l 300 1036 l 300 935 l 475 1004 l 650 935 z m 475 872 b 60 431 243 872 60 689 b 475 -12 60 174 246 -12 b 892 431 704 -12 892 160 b 475 872 892 683 710 872 z m 475 747 b 675 665 553 747 622 718 b 475 596 622 621 544 596 b 278 664 408 596 331 621 b 475 747 328 717 396 747 z m 475 113 b 192 431 319 113 192 233 b 213 558 192 476 199 519 b 475 468 289 501 381 468 b 739 558 569 468 663 501 b 760 431 753 521 760 478 b 475 113 760 233 636 113 z "},"Ö":{"ha":951,"x_min":0,"x_max":0,"o":"m 310 1075 l 310 949 l 438 949 l 438 1075 z m 514 1075 l 514 949 l 642 949 l 642 1075 z m 475 872 b 60 431 243 872 60 689 b 475 -12 60 174 246 -12 b 892 431 704 -12 892 160 b 475 872 892 683 710 872 z m 475 747 b 675 665 553 747 622 718 b 475 596 622 621 544 596 b 278 664 408 596 331 621 b 475 747 328 717 396 747 z m 475 113 b 192 431 319 113 192 233 b 213 558 192 476 199 519 b 475 468 289 501 381 468 b 739 558 569 468 663 501 b 760 431 753 521 760 478 b 475 113 760 233 636 113 z "},"Ò":{"ha":951,"x_min":0,"x_max":0,"o":"m 390 1125 l 356 1028 l 585 947 l 615 1036 z m 475 872 b 60 431 243 872 60 689 b 475 -12 60 174 246 -12 b 892 431 704 -12 892 160 b 475 872 892 683 710 872 z m 475 747 b 675 665 553 747 622 718 b 475 596 622 621 544 596 b 278 664 408 596 331 621 b 475 747 328 717 396 747 z m 475 113 b 192 431 319 113 192 233 b 213 558 192 476 199 519 b 475 468 289 501 381 468 b 739 558 569 468 663 501 b 760 431 753 521 760 478 b 475 113 760 233 636 113 z "},"Ő":{"ha":951,"x_min":0,"x_max":0,"o":"m 375 1174 l 357 982 l 436 982 l 488 1174 z m 576 1174 l 500 982 l 589 982 l 699 1174 z m 475 872 b 60 431 243 872 60 689 b 475 -12 60 174 246 -12 b 892 431 704 -12 892 160 b 475 872 892 683 710 872 z m 475 747 b 675 665 553 747 622 718 b 475 596 622 621 544 596 b 278 664 408 596 331 621 b 475 747 328 717 396 747 z m 475 113 b 192 431 319 113 192 233 b 213 558 192 476 199 519 b 475 468 289 501 381 468 b 739 558 569 468 663 501 b 760 431 753 521 760 478 b 475 113 760 233 636 113 z "},"Ō":{"ha":951,"x_min":0,"x_max":0,"o":"m 325 1067 l 325 976 l 625 976 l 625 1067 z m 475 872 b 60 431 243 872 60 689 b 475 -12 60 174 246 -12 b 892 431 704 -12 892 160 b 475 872 892 683 710 872 z m 475 747 b 675 665 553 747 622 718 b 475 596 622 621 544 596 b 278 664 408 596 331 621 b 475 747 328 717 396 747 z m 475 113 b 192 431 319 113 192 233 b 213 558 192 476 199 519 b 475 468 289 501 381 468 b 739 558 569 468 663 501 b 760 431 753 521 760 478 b 475 113 760 233 636 113 z "},"Ø":{"ha":951,"x_min":0,"x_max":0,"o":"m 476 872 b 60 431 242 872 60 683 b 476 -12 60 160 247 -12 b 892 431 706 -12 892 174 b 476 872 892 689 708 872 z m 476 747 b 610 714 525 747 571 735 b 247 231 528 503 372 328 b 192 431 213 282 192 350 b 476 747 192 629 319 747 z m 476 113 b 338 147 426 113 379 125 b 703 628 468 257 617 424 b 760 431 739 575 760 507 b 476 113 760 233 632 113 z "},"Õ":{"ha":951,"x_min":0,"x_max":0,"o":"m 381 1006 b 428 1015 388 1019 404 1031 l 478 982 b 660 1040 547 938 619 957 l 676 1071 l 590 1110 l 574 1076 b 526 1067 567 1063 550 1051 l 476 1100 b 297 1049 408 1144 335 1124 l 278 1011 l 364 971 z m 475 872 b 60 431 243 872 60 689 b 475 -12 60 174 246 -12 b 892 431 704 -12 892 160 b 475 872 892 683 710 872 z m 475 747 b 675 665 553 747 622 718 b 475 596 622 621 544 596 b 278 664 408 596 331 621 b 475 747 328 717 396 747 z m 475 113 b 192 431 319 113 192 233 b 213 558 192 476 199 519 b 475 468 289 501 381 468 b 739 558 569 468 663 501 b 760 431 753 521 760 478 b 475 113 760 233 636 113 z "},"Œ":{"ha":1360,"x_min":0,"x_max":0,"o":"m 1167 347 l 1194 472 l 892 472 l 892 588 b 1036 739 892 686 951 739 b 1189 615 1101 739 1157 706 l 1311 672 b 1038 864 1261 800 1156 864 b 788 728 915 864 829 811 b 475 872 713 818 601 872 b 60 431 243 872 60 689 b 475 -12 60 174 246 -12 b 760 99 585 -12 685 26 l 760 -11 l 1278 -11 l 1278 114 l 892 114 l 892 347 z m 475 747 b 675 665 553 747 622 718 b 475 596 622 621 544 596 b 278 664 408 596 331 621 b 475 747 328 717 396 747 z m 475 113 b 192 431 319 113 192 233 b 213 558 192 476 199 519 b 475 468 289 501 381 468 b 739 558 569 468 663 501 b 760 431 753 521 760 478 b 475 113 760 233 636 113 z "},"P":{"ha":688,"x_min":0,"x_max":0,"o":"m 369 875 b 90 581 211 875 90 754 l 90 0 l 222 0 l 222 368 b 383 317 271 332 331 317 b 651 596 535 317 651 436 b 369 875 651 753 528 875 z m 372 442 b 224 597 290 442 224 510 b 372 750 224 683 290 750 b 519 597 453 750 519 683 b 372 442 519 510 453 442 z "},"Þ":{"ha":732,"x_min":0,"x_max":0,"o":"m 381 714 b 232 672 325 714 275 699 l 232 861 l 101 861 l 101 0 l 233 0 l 233 207 b 394 156 282 171 342 156 b 663 435 546 156 663 275 b 381 714 663 592 539 714 z m 383 281 b 235 436 301 281 235 349 b 383 589 235 522 301 589 b 531 436 464 589 531 522 b 383 281 531 349 464 281 z "},"Q":{"ha":971,"x_min":0,"x_max":0,"o":"m 911 124 b 811 158 876 131 843 143 b 892 431 863 231 892 322 b 475 872 892 683 710 872 b 60 431 243 872 60 689 b 475 -12 60 174 246 -12 b 715 61 564 -12 647 14 b 911 -17 775 24 842 -3 z m 475 113 b 192 431 319 113 192 233 b 425 743 192 594 288 718 b 610 144 394 486 474 279 b 475 113 569 124 524 113 z m 760 431 b 706 233 760 351 740 285 b 549 738 592 342 525 518 b 760 431 669 707 760 597 z "},"R":{"ha":722,"x_min":0,"x_max":0,"o":"m 574 403 b 651 596 622 453 651 519 b 369 875 651 753 528 875 b 90 581 211 875 90 754 l 90 0 l 222 0 l 222 368 b 369 317 268 332 318 317 b 465 333 403 317 436 322 b 521 15 511 238 521 138 l 521 0 l 653 0 l 653 15 b 574 403 653 163 638 289 z m 224 597 b 372 750 224 683 290 750 b 519 597 453 750 519 683 b 372 442 519 510 453 442 b 224 597 290 442 224 510 z "},"Ŕ":{"ha":722,"x_min":0,"x_max":0,"o":"m 440 1113 l 215 1024 l 246 935 l 475 1015 z m 574 403 b 651 596 622 453 651 519 b 369 875 651 753 528 875 b 90 581 211 875 90 754 l 90 0 l 222 0 l 222 368 b 369 317 268 332 318 317 b 465 333 403 317 436 322 b 521 15 511 238 521 138 l 521 0 l 653 0 l 653 15 b 574 403 653 163 638 289 z m 224 597 b 372 750 224 683 290 750 b 519 597 453 750 519 683 b 372 442 519 510 453 442 b 224 597 290 442 224 510 z "},"Ř":{"ha":722,"x_min":0,"x_max":0,"o":"m 531 1111 l 356 1042 l 181 1111 l 181 1010 l 356 936 l 531 1010 z m 574 403 b 651 596 622 453 651 519 b 369 875 651 753 528 875 b 90 581 211 875 90 754 l 90 0 l 222 0 l 222 368 b 369 317 268 332 318 317 b 465 333 403 317 436 322 b 521 15 511 238 521 138 l 521 0 l 653 0 l 653 15 b 574 403 653 163 638 289 z m 224 597 b 372 750 224 683 290 750 b 519 597 453 750 519 683 b 372 442 519 510 453 442 b 224 597 290 442 224 510 z "},"Ŗ":{"ha":722,"x_min":0,"x_max":0,"o":"m 574 403 b 651 596 622 453 651 519 b 369 875 651 753 528 875 b 90 581 211 875 90 754 l 90 0 l 222 0 l 222 368 b 369 317 268 332 318 317 b 465 333 403 317 436 322 b 521 15 511 238 521 138 l 521 0 l 653 0 l 653 15 b 574 403 653 163 638 289 z m 224 597 b 372 750 224 683 290 750 b 519 597 453 750 519 683 b 372 442 519 510 453 442 b 224 597 290 442 224 510 z m 322 -346 b 433 -69 388 -267 428 -176 l 310 -69 b 231 -300 308 -150 283 -232 z "},"S":{"ha":706,"x_min":0,"x_max":0,"o":"m 210 599 b 354 750 210 697 269 750 b 507 626 419 750 475 717 l 629 683 b 356 875 579 811 474 875 b 78 608 178 875 76 765 l 79 393 l 144 399 b 476 201 313 413 476 379 l 476 125 l 76 125 l 76 0 l 608 0 l 608 210 b 210 524 608 432 418 540 z "},"Ś":{"ha":706,"x_min":0,"x_max":0,"o":"m 215 1024 l 246 935 l 475 1015 l 440 1113 z m 210 599 b 354 750 210 697 269 750 b 507 626 419 750 475 717 l 629 683 b 356 875 579 811 474 875 b 78 608 178 875 76 765 l 79 393 l 144 399 b 476 201 313 413 476 379 l 476 125 l 76 125 l 76 0 l 608 0 l 608 210 b 210 524 608 432 418 540 z "},"Š":{"ha":706,"x_min":0,"x_max":0,"o":"m 356 936 l 531 1010 l 531 1111 l 356 1042 l 181 1111 l 181 1010 z m 210 599 b 354 750 210 697 269 750 b 507 626 419 750 475 717 l 629 683 b 356 875 579 811 474 875 b 78 608 178 875 76 765 l 79 393 l 144 399 b 476 201 313 413 476 379 l 476 125 l 76 125 l 76 0 l 608 0 l 608 210 b 210 524 608 432 418 540 z "},"Ş":{"ha":706,"x_min":0,"x_max":0,"o":"m 210 599 b 354 750 210 697 269 750 b 507 626 419 750 475 717 l 629 683 b 356 875 579 811 474 875 b 78 608 178 875 76 765 l 79 393 l 144 399 b 476 201 313 413 476 379 l 476 125 l 76 125 l 76 0 l 221 0 l 156 -146 l 281 -192 l 335 0 l 608 0 l 608 210 b 210 524 608 432 418 540 z "},"ẞ":{"ha":782,"x_min":0,"x_max":0,"o":"m 574 399 b 649 596 621 449 649 517 b 367 875 649 753 525 875 b 88 581 208 875 88 754 l 88 0 l 219 0 l 219 368 b 378 317 268 333 326 317 b 601 125 578 306 601 233 l 601 124 l 329 124 l 329 0 l 733 0 l 733 103 b 574 399 733 256 664 357 z m 221 597 b 369 750 221 683 288 750 b 517 597 450 750 517 683 b 369 442 517 510 450 442 b 221 597 288 442 221 510 z "},"T":{"ha":632,"x_min":0,"x_max":0,"o":"m 49 736 l 250 736 l 250 0 l 382 0 l 382 736 l 583 736 l 583 861 l 49 861 z "},"Ŧ":{"ha":632,"x_min":0,"x_max":0,"o":"m 583 861 l 49 861 l 49 736 l 250 736 l 250 501 l 147 501 l 147 390 l 250 390 l 250 0 l 382 0 l 382 390 l 485 390 l 485 501 l 382 501 l 382 736 l 583 736 z "},"Ť":{"ha":632,"x_min":0,"x_max":0,"o":"m 492 1111 l 317 1042 l 142 1111 l 142 1010 l 317 936 l 492 1010 z m 49 736 l 250 736 l 250 0 l 382 0 l 382 736 l 583 736 l 583 861 l 49 861 z "},"Ţ":{"ha":632,"x_min":0,"x_max":0,"o":"m 49 736 l 250 736 l 250 0 l 185 -146 l 310 -192 l 364 0 l 382 0 l 382 736 l 583 736 l 583 861 l 49 861 z "},"U":{"ha":739,"x_min":0,"x_max":0,"o":"m 517 247 b 369 113 517 163 457 113 b 222 247 282 113 222 163 l 222 861 l 90 861 l 90 247 b 369 -12 90 94 204 -12 b 649 247 535 -12 649 94 l 649 861 l 517 861 z "},"Ú":{"ha":739,"x_min":0,"x_max":0,"o":"m 229 1024 l 260 935 l 489 1015 l 454 1113 z m 517 247 b 369 113 517 163 457 113 b 222 247 282 113 222 163 l 222 861 l 90 861 l 90 247 b 369 -12 90 94 204 -12 b 649 247 535 -12 649 94 l 649 861 l 517 861 z "},"Û":{"ha":739,"x_min":0,"x_max":0,"o":"m 194 922 l 369 992 l 544 922 l 544 1024 l 369 1097 l 194 1024 z m 517 247 b 369 113 517 163 457 113 b 222 247 282 113 222 163 l 222 861 l 90 861 l 90 247 b 369 -12 90 94 204 -12 b 649 247 535 -12 649 94 l 649 861 l 517 861 z "},"Ü":{"ha":739,"x_min":0,"x_max":0,"o":"m 332 936 l 332 1063 l 204 1063 l 204 936 z m 408 936 l 536 936 l 536 1063 l 408 1063 z m 517 247 b 369 113 517 163 457 113 b 222 247 282 113 222 163 l 222 861 l 90 861 l 90 247 b 369 -12 90 94 204 -12 b 649 247 535 -12 649 94 l 649 861 l 517 861 z "},"Ù":{"ha":739,"x_min":0,"x_max":0,"o":"m 250 1015 l 479 935 l 510 1024 l 285 1113 z m 517 247 b 369 113 517 163 457 113 b 222 247 282 113 222 163 l 222 861 l 90 861 l 90 247 b 369 -12 90 94 204 -12 b 649 247 535 -12 649 94 l 649 861 l 517 861 z "},"Ű":{"ha":739,"x_min":0,"x_max":0,"o":"m 251 969 l 331 969 l 382 1161 l 269 1161 z m 394 969 l 483 969 l 593 1161 l 471 1161 z m 517 247 b 369 113 517 163 457 113 b 222 247 282 113 222 163 l 222 861 l 90 861 l 90 247 b 369 -12 90 94 204 -12 b 649 247 535 -12 649 94 l 649 861 l 517 861 z "},"Ū":{"ha":739,"x_min":0,"x_max":0,"o":"m 219 964 l 519 964 l 519 1054 l 219 1054 z m 517 247 b 369 113 517 163 457 113 b 222 247 282 113 222 163 l 222 861 l 90 861 l 90 247 b 369 -12 90 94 204 -12 b 649 247 535 -12 649 94 l 649 861 l 517 861 z "},"Ų":{"ha":739,"x_min":0,"x_max":0,"o":"m 517 247 b 369 113 517 163 457 113 b 222 247 282 113 222 163 l 222 861 l 90 861 l 90 247 b 319 -10 90 111 182 11 b 272 -97 285 -36 272 -65 b 417 -204 272 -151 314 -204 b 493 -196 439 -204 465 -201 l 493 -99 b 386 -75 440 -114 393 -108 b 464 0 381 -46 401 -21 l 463 0 b 649 247 576 32 649 125 l 649 861 l 517 861 z "},"Ů":{"ha":739,"x_min":0,"x_max":0,"o":"m 369 908 b 499 1039 440 908 499 967 b 369 1168 499 1110 440 1168 b 239 1039 297 1168 239 1110 b 369 908 239 967 297 908 z m 369 990 b 321 1039 342 990 321 1011 b 369 1086 321 1065 342 1086 b 417 1039 396 1086 417 1065 b 369 990 417 1011 396 990 z m 517 247 b 369 113 517 163 457 113 b 222 247 282 113 222 163 l 222 861 l 90 861 l 90 247 b 369 -12 90 94 204 -12 b 649 247 535 -12 649 94 l 649 861 l 517 861 z "},"V":{"ha":735,"x_min":0,"x_max":0,"o":"m 542 861 b 233 129 528 399 453 165 l 233 861 l 101 861 l 101 0 l 167 0 b 672 861 522 0 658 265 z "},"W":{"ha":1103,"x_min":0,"x_max":0,"o":"m 869 129 b 613 844 675 171 613 438 l 613 861 l 490 861 l 490 844 b 233 129 490 438 428 171 l 233 861 l 101 861 l 101 0 l 167 0 b 551 326 371 0 507 136 b 936 0 596 136 732 0 l 1001 0 l 1001 861 l 869 861 z "},"Ẃ":{"ha":1103,"x_min":0,"x_max":0,"o":"m 411 1024 l 442 935 l 671 1015 l 636 1113 z m 869 129 b 613 844 675 171 613 438 l 613 861 l 490 861 l 490 844 b 233 129 490 438 428 171 l 233 861 l 101 861 l 101 0 l 167 0 b 551 326 371 0 507 136 b 936 0 596 136 732 0 l 1001 0 l 1001 861 l 869 861 z "},"Ŵ":{"ha":1103,"x_min":0,"x_max":0,"o":"m 376 922 l 551 992 l 726 922 l 726 1024 l 551 1097 l 376 1024 z m 869 129 b 613 844 675 171 613 438 l 613 861 l 490 861 l 490 844 b 233 129 490 438 428 171 l 233 861 l 101 861 l 101 0 l 167 0 b 551 326 371 0 507 136 b 936 0 596 136 732 0 l 1001 0 l 1001 861 l 869 861 z "},"Ẅ":{"ha":1103,"x_min":0,"x_max":0,"o":"m 514 936 l 514 1063 l 386 1063 l 386 936 z m 590 936 l 718 936 l 718 1063 l 590 1063 z m 869 129 b 613 844 675 171 613 438 l 613 861 l 490 861 l 490 844 b 233 129 490 438 428 171 l 233 861 l 101 861 l 101 0 l 167 0 b 551 326 371 0 507 136 b 936 0 596 136 732 0 l 1001 0 l 1001 861 l 869 861 z "},"Ẁ":{"ha":1103,"x_min":0,"x_max":0,"o":"m 432 1015 l 661 935 l 692 1024 l 467 1113 z m 869 129 b 613 844 675 171 613 438 l 613 861 l 490 861 l 490 844 b 233 129 490 438 428 171 l 233 861 l 101 861 l 101 0 l 167 0 b 551 326 371 0 507 136 b 936 0 596 136 732 0 l 1001 0 l 1001 861 l 869 861 z "},"X":{"ha":826,"x_min":0,"x_max":0,"o":"m 536 490 b 710 522 581 514 625 522 l 710 861 l 578 861 l 578 629 b 414 571 532 625 469 603 b 242 629 358 603 293 625 l 242 861 l 111 861 l 111 522 b 290 490 196 522 243 514 b 83 17 153 367 83 206 l 83 0 l 215 0 l 215 17 b 415 421 215 185 285 329 b 613 17 542 329 613 182 l 613 0 l 743 0 l 743 17 b 536 490 743 201 669 372 z "},"Y":{"ha":764,"x_min":0,"x_max":0,"o":"m 549 564 b 382 504 482 558 444 542 b 215 564 319 542 282 558 l 214 861 l 83 861 l 85 447 b 317 400 219 447 263 436 l 315 0 l 449 0 l 447 400 b 679 447 501 436 544 447 l 681 861 l 550 861 z "},"Ý":{"ha":764,"x_min":0,"x_max":0,"o":"m 240 1036 l 271 947 l 500 1028 l 465 1125 z m 549 564 b 382 504 482 558 444 542 b 215 564 319 542 282 558 l 214 861 l 83 861 l 85 447 b 317 400 219 447 263 436 l 315 0 l 449 0 l 447 400 b 679 447 501 436 544 447 l 681 861 l 550 861 z "},"Ŷ":{"ha":764,"x_min":0,"x_max":0,"o":"m 206 935 l 381 1004 l 556 935 l 556 1036 l 381 1110 l 206 1036 z m 549 564 b 382 504 482 558 444 542 b 215 564 319 542 282 558 l 214 861 l 83 861 l 85 447 b 317 400 219 447 263 436 l 315 0 l 449 0 l 447 400 b 679 447 501 436 544 447 l 681 861 l 550 861 z "},"Ÿ":{"ha":764,"x_min":0,"x_max":0,"o":"m 343 949 l 343 1075 l 215 1075 l 215 949 z m 419 949 l 547 949 l 547 1075 l 419 1075 z m 549 564 b 382 504 482 558 444 542 b 215 564 319 542 282 558 l 214 861 l 83 861 l 85 447 b 317 400 219 447 263 436 l 315 0 l 449 0 l 447 400 b 679 447 501 436 544 447 l 681 861 l 550 861 z "},"Ỳ":{"ha":764,"x_min":0,"x_max":0,"o":"m 261 1028 l 490 947 l 521 1036 l 296 1125 z m 549 564 b 382 504 482 558 444 542 b 215 564 319 542 282 558 l 214 861 l 83 861 l 85 447 b 317 400 219 447 263 436 l 315 0 l 449 0 l 447 400 b 679 447 501 436 544 447 l 681 861 l 550 861 z "},"Z":{"ha":722,"x_min":0,"x_max":0,"o":"m 517 126 l 232 126 l 232 325 b 626 790 500 347 626 510 l 626 861 l 97 861 l 97 736 l 492 736 b 100 438 479 536 360 438 l 100 1 l 635 1 l 635 265 l 517 265 z "},"Ź":{"ha":722,"x_min":0,"x_max":0,"o":"m 215 1024 l 246 935 l 475 1015 l 440 1113 z m 517 126 l 232 126 l 232 325 b 626 790 500 347 626 510 l 626 861 l 97 861 l 97 736 l 492 736 b 100 438 479 536 360 438 l 100 1 l 635 1 l 635 265 l 517 265 z "},"Ž":{"ha":722,"x_min":0,"x_max":0,"o":"m 356 936 l 531 1010 l 531 1111 l 356 1042 l 181 1111 l 181 1010 z m 517 126 l 232 126 l 232 325 b 626 790 500 347 626 510 l 626 861 l 97 861 l 97 736 l 492 736 b 100 438 479 536 360 438 l 100 1 l 635 1 l 635 265 l 517 265 z "},"Ż":{"ha":722,"x_min":0,"x_max":0,"o":"m 293 974 l 417 974 l 417 1097 l 293 1097 z m 517 126 l 232 126 l 232 325 b 626 790 500 347 626 510 l 626 861 l 97 861 l 97 736 l 492 736 b 100 438 479 536 360 438 l 100 1 l 635 1 l 635 265 l 517 265 z "},"a":{"ha":653,"x_min":0,"x_max":0,"o":"m 315 663 b 63 504 229 663 115 621 l 189 449 b 315 538 222 522 271 538 b 431 429 383 538 431 494 l 431 372 b 313 404 396 394 354 404 b 85 181 189 404 85 318 l 85 0 l 563 0 l 563 407 b 315 663 563 583 457 663 z m 217 169 b 324 283 217 233 249 283 b 431 169 375 283 431 254 l 431 125 l 217 125 z "},"á":{"ha":653,"x_min":0,"x_max":0,"o":"m 408 900 l 183 811 l 214 722 l 443 803 z m 315 663 b 63 504 229 663 115 621 l 189 449 b 315 538 222 522 271 538 b 431 429 383 538 431 494 l 431 372 b 313 404 396 394 354 404 b 85 181 189 404 85 318 l 85 0 l 563 0 l 563 407 b 315 663 563 583 457 663 z m 217 169 b 324 283 217 233 249 283 b 431 169 375 283 431 254 l 431 125 l 217 125 z "},"ă":{"ha":653,"x_min":0,"x_max":0,"o":"m 324 740 b 488 906 414 740 488 815 l 390 906 b 324 838 390 868 360 838 b 256 906 286 838 256 868 l 158 906 b 324 740 158 815 233 740 z m 315 663 b 63 504 229 663 115 621 l 189 449 b 315 538 222 522 271 538 b 431 429 383 538 431 494 l 431 372 b 313 404 396 394 354 404 b 85 181 189 404 85 318 l 85 0 l 563 0 l 563 407 b 315 663 563 583 457 663 z m 217 169 b 324 283 217 233 249 283 b 431 169 375 283 431 254 l 431 125 l 217 125 z "},"â":{"ha":653,"x_min":0,"x_max":0,"o":"m 499 811 l 324 885 l 149 811 l 149 710 l 324 779 l 499 710 z m 315 663 b 63 504 229 663 115 621 l 189 449 b 315 538 222 522 271 538 b 431 429 383 538 431 494 l 431 372 b 313 404 396 394 354 404 b 85 181 189 404 85 318 l 85 0 l 563 0 l 563 407 b 315 663 563 583 457 663 z m 217 169 b 324 283 217 233 249 283 b 431 169 375 283 431 254 l 431 125 l 217 125 z "},"ä":{"ha":653,"x_min":0,"x_max":0,"o":"m 142 871 l 142 732 l 282 732 l 282 871 z m 365 871 l 365 732 l 506 732 l 506 871 z m 315 663 b 63 504 229 663 115 621 l 189 449 b 315 538 222 522 271 538 b 431 429 383 538 431 494 l 431 372 b 313 404 396 394 354 404 b 85 181 189 404 85 318 l 85 0 l 563 0 l 563 407 b 315 663 563 583 457 663 z m 217 169 b 324 283 217 233 249 283 b 431 169 375 283 431 254 l 431 125 l 217 125 z "},"à":{"ha":653,"x_min":0,"x_max":0,"o":"m 239 900 l 204 803 l 433 722 l 464 811 z m 315 663 b 63 504 229 663 115 621 l 189 449 b 315 538 222 522 271 538 b 431 429 383 538 431 494 l 431 372 b 313 404 396 394 354 404 b 85 181 189 404 85 318 l 85 0 l 563 0 l 563 407 b 315 663 563 583 457 663 z m 217 169 b 324 283 217 233 249 283 b 431 169 375 283 431 254 l 431 125 l 217 125 z "},"ā":{"ha":653,"x_min":0,"x_max":0,"o":"m 174 842 l 174 751 l 474 751 l 474 842 z m 315 663 b 63 504 229 663 115 621 l 189 449 b 315 538 222 522 271 538 b 431 429 383 538 431 494 l 431 372 b 313 404 396 394 354 404 b 85 181 189 404 85 318 l 85 0 l 563 0 l 563 407 b 315 663 563 583 457 663 z m 217 169 b 324 283 217 233 249 283 b 431 169 375 283 431 254 l 431 125 l 217 125 z "},"ą":{"ha":653,"x_min":0,"x_max":0,"o":"m 485 -75 b 563 0 479 -46 500 -21 l 563 407 b 315 663 563 583 457 663 b 63 504 229 663 115 621 l 189 449 b 315 538 222 522 271 538 b 431 429 383 538 431 494 l 431 372 b 313 404 396 394 354 404 b 85 181 189 404 85 318 l 85 0 l 431 0 b 371 -97 386 -29 371 -61 b 515 -204 371 -151 413 -204 b 592 -196 538 -204 564 -201 l 592 -99 b 485 -75 539 -114 492 -108 z m 217 169 b 324 283 217 233 249 283 b 431 169 375 283 431 254 l 431 125 l 217 125 z "},"å":{"ha":653,"x_min":0,"x_max":0,"o":"m 324 696 b 453 826 394 696 453 754 b 324 956 453 897 394 956 b 193 826 251 956 193 897 b 324 696 193 754 251 696 z m 324 874 b 371 826 350 874 371 853 b 324 778 371 799 350 778 b 275 826 296 778 275 799 b 324 874 275 853 296 874 z m 315 663 b 63 504 229 663 115 621 l 189 449 b 315 538 222 522 271 538 b 431 429 383 538 431 494 l 431 372 b 313 404 396 394 354 404 b 85 181 189 404 85 318 l 85 0 l 563 0 l 563 407 b 315 663 563 583 457 663 z m 217 169 b 324 283 217 233 249 283 b 431 169 375 283 431 254 l 431 125 l 217 125 z "},"ã":{"ha":653,"x_min":0,"x_max":0,"o":"m 229 781 b 276 790 236 794 253 806 l 326 757 b 508 815 396 713 468 732 l 525 846 l 439 885 l 422 851 b 375 842 415 838 399 826 l 325 875 b 146 824 257 919 183 899 l 126 786 l 213 746 z m 315 663 b 63 504 229 663 115 621 l 189 449 b 315 538 222 522 271 538 b 431 429 383 538 431 494 l 431 372 b 313 404 396 394 354 404 b 85 181 189 404 85 318 l 85 0 l 563 0 l 563 407 b 315 663 563 583 457 663 z m 217 169 b 324 283 217 233 249 283 b 431 169 375 283 431 254 l 431 125 l 217 125 z "},"æ":{"ha":960,"x_min":0,"x_max":0,"o":"m 563 258 b 690 225 599 235 642 225 b 894 440 801 225 894 310 b 671 663 894 564 794 663 b 499 594 606 663 543 639 b 315 663 454 640 389 663 b 63 504 229 663 115 621 l 189 449 b 315 538 222 522 271 538 b 431 429 383 538 431 494 l 431 372 b 313 404 396 394 354 404 b 85 181 189 404 85 318 l 85 0 l 876 0 l 876 125 l 563 125 z m 665 544 b 768 442 722 544 768 499 b 665 339 768 385 722 339 b 563 442 608 339 563 385 b 665 544 563 499 608 544 z m 217 169 b 324 283 217 233 249 283 b 431 169 375 283 431 254 l 431 124 l 217 124 z "},"b":{"ha":665,"x_min":0,"x_max":0,"o":"m 518 663 b 224 603 414 663 296 639 l 224 931 l 93 931 l 93 0 l 157 0 b 586 382 457 0 586 89 l 586 663 z m 224 365 b 454 528 224 463 224 513 l 454 382 b 224 125 454 203 417 131 z "},"c":{"ha":624,"x_min":0,"x_max":0,"o":"m 215 413 b 324 538 215 494 256 538 b 440 425 374 538 421 513 l 565 479 b 314 663 526 610 428 663 b 81 429 186 663 81 583 l 81 1 l 79 0 l 543 0 l 543 125 l 215 125 z "},"ć":{"ha":624,"x_min":0,"x_max":0,"o":"m 399 900 l 174 811 l 204 722 l 433 803 z m 215 413 b 324 538 215 494 256 538 b 440 425 374 538 421 513 l 565 479 b 314 663 526 610 428 663 b 81 429 186 663 81 583 l 81 1 l 79 0 l 543 0 l 543 125 l 215 125 z "},"č":{"ha":624,"x_min":0,"x_max":0,"o":"m 489 899 l 314 829 l 139 899 l 139 797 l 314 724 l 489 797 z m 215 413 b 324 538 215 494 256 538 b 440 425 374 538 421 513 l 565 479 b 314 663 526 610 428 663 b 81 429 186 663 81 583 l 81 1 l 79 0 l 543 0 l 543 125 l 215 125 z "},"ç":{"ha":624,"x_min":0,"x_max":0,"o":"m 215 413 b 324 538 215 494 256 538 b 440 425 374 538 421 513 l 565 479 b 314 663 526 610 428 663 b 81 429 186 663 81 583 l 81 1 l 79 0 l 265 0 l 200 -146 l 325 -192 l 379 0 l 543 0 l 543 125 l 215 125 z "},"d":{"ha":663,"x_min":0,"x_max":0,"o":"m 450 649 l 93 649 l 93 0 l 161 0 b 450 65 282 0 379 22 l 450 0 l 583 0 l 583 931 l 450 931 z m 450 311 b 225 135 450 196 379 135 l 225 524 l 450 524 z "},"ð":{"ha":704,"x_min":0,"x_max":0,"o":"m 568 854 l 504 922 l 446 865 b 168 931 379 908 286 933 l 168 818 b 365 783 250 824 315 810 l 303 722 l 360 663 l 432 729 b 472 610 458 694 472 653 l 472 558 b 161 635 400 622 265 635 l 93 635 l 93 382 b 522 0 93 89 222 0 l 586 0 l 586 597 b 514 804 586 675 563 747 z m 456 125 b 225 382 263 131 225 203 l 225 500 b 456 338 456 485 456 435 z "},"ď":{"ha":663,"x_min":0,"x_max":0,"o":"m 93 649 l 93 0 l 161 0 b 450 65 282 0 379 22 l 450 0 l 583 0 l 583 931 l 450 931 l 450 649 z m 686 931 b 663 738 685 894 676 815 l 740 708 b 804 931 775 797 799 881 z m 450 311 b 225 135 450 196 379 135 l 225 524 l 450 524 z "},"đ":{"ha":663,"x_min":0,"x_max":0,"o":"m 583 829 l 583 931 l 450 931 l 450 829 l 342 829 l 342 746 l 450 746 l 450 649 l 93 649 l 93 0 l 161 0 b 450 65 282 0 379 22 l 450 0 l 583 0 l 583 746 l 646 746 l 646 829 z m 450 311 b 225 135 450 196 379 135 l 225 524 l 450 524 z "},"e":{"ha":607,"x_min":0,"x_max":0,"o":"m 210 257 b 324 225 242 235 275 225 b 542 440 435 225 542 310 b 318 663 542 564 442 663 b 79 426 193 663 79 578 l 79 0 l 524 0 l 524 125 l 210 125 z m 313 544 b 415 442 369 544 415 499 b 313 339 415 385 369 339 b 210 442 256 339 210 385 b 313 544 210 499 256 544 z "},"é":{"ha":607,"x_min":0,"x_max":0,"o":"m 403 900 l 178 811 l 208 722 l 438 803 z m 210 257 b 324 225 242 235 275 225 b 542 440 435 225 542 310 b 318 663 542 564 442 663 b 79 426 193 663 79 578 l 79 0 l 524 0 l 524 125 l 210 125 z m 313 544 b 415 442 369 544 415 499 b 313 339 415 385 369 339 b 210 442 256 339 210 385 b 313 544 210 499 256 544 z "},"ě":{"ha":607,"x_min":0,"x_max":0,"o":"m 493 899 l 318 829 l 143 899 l 143 797 l 318 724 l 493 797 z m 210 257 b 324 225 242 235 275 225 b 542 440 435 225 542 310 b 318 663 542 564 442 663 b 79 426 193 663 79 578 l 79 0 l 524 0 l 524 125 l 210 125 z m 313 544 b 415 442 369 544 415 499 b 313 339 415 385 369 339 b 210 442 256 339 210 385 b 313 544 210 499 256 544 z "},"ê":{"ha":607,"x_min":0,"x_max":0,"o":"m 493 811 l 318 885 l 143 811 l 143 710 l 318 779 l 493 710 z m 210 257 b 324 225 242 235 275 225 b 542 440 435 225 542 310 b 318 663 542 564 442 663 b 79 426 193 663 79 578 l 79 0 l 524 0 l 524 125 l 210 125 z m 313 544 b 415 442 369 544 415 499 b 313 339 415 385 369 339 b 210 442 256 339 210 385 b 313 544 210 499 256 544 z "},"ë":{"ha":607,"x_min":0,"x_max":0,"o":"m 136 871 l 136 732 l 276 732 l 276 871 z m 360 871 l 360 732 l 500 732 l 500 871 z m 210 257 b 324 225 242 235 275 225 b 542 440 435 225 542 310 b 318 663 542 564 442 663 b 79 426 193 663 79 578 l 79 0 l 524 0 l 524 125 l 210 125 z m 313 544 b 415 442 369 544 415 499 b 313 339 415 385 369 339 b 210 442 256 339 210 385 b 313 544 210 499 256 544 z "},"ė":{"ha":607,"x_min":0,"x_max":0,"o":"m 256 885 l 256 761 l 379 761 l 379 885 z m 210 257 b 324 225 242 235 275 225 b 542 440 435 225 542 310 b 318 663 542 564 442 663 b 79 426 193 663 79 578 l 79 0 l 524 0 l 524 125 l 210 125 z m 313 544 b 415 442 369 544 415 499 b 313 339 415 385 369 339 b 210 442 256 339 210 385 b 313 544 210 499 256 544 z "},"è":{"ha":607,"x_min":0,"x_max":0,"o":"m 233 900 l 199 803 l 428 722 l 458 811 z m 210 257 b 324 225 242 235 275 225 b 542 440 435 225 542 310 b 318 663 542 564 442 663 b 79 426 193 663 79 578 l 79 0 l 524 0 l 524 125 l 210 125 z m 313 544 b 415 442 369 544 415 499 b 313 339 415 385 369 339 b 210 442 256 339 210 385 b 313 544 210 499 256 544 z "},"ē":{"ha":607,"x_min":0,"x_max":0,"o":"m 168 842 l 168 751 l 468 751 l 468 842 z m 210 257 b 324 225 242 235 275 225 b 542 440 435 225 542 310 b 318 663 542 564 442 663 b 79 426 193 663 79 578 l 79 0 l 524 0 l 524 125 l 210 125 z m 313 544 b 415 442 369 544 415 499 b 313 339 415 385 369 339 b 210 442 256 339 210 385 b 313 544 210 499 256 544 z "},"ę":{"ha":607,"x_min":0,"x_max":0,"o":"m 440 -75 b 518 0 435 -46 456 -21 l 524 0 l 524 125 l 210 125 l 210 257 b 324 225 242 235 275 225 b 542 440 435 225 542 310 b 318 663 542 564 442 663 b 79 426 193 663 79 578 l 79 0 l 386 0 b 326 -97 342 -29 326 -61 b 471 -204 326 -151 368 -204 b 547 -196 493 -204 519 -201 l 547 -99 b 440 -75 494 -114 447 -108 z m 313 544 b 415 442 369 544 415 499 b 313 339 415 385 369 339 b 210 442 256 339 210 385 b 313 544 210 499 256 544 z "},"ə":{"ha":607,"x_min":0,"x_max":0,"o":"m 83 524 l 397 524 l 397 392 b 283 424 365 414 332 424 b 65 208 172 424 65 339 b 289 -14 65 85 165 -14 b 528 222 414 -14 528 71 l 528 649 l 83 649 z m 294 104 b 192 207 238 104 192 150 b 294 310 192 264 238 310 b 397 207 351 310 397 264 b 294 104 397 150 351 104 z "},"f":{"ha":574,"x_min":0,"x_max":0,"o":"m 308 681 b 404 793 308 754 344 793 b 494 725 440 793 475 771 l 615 786 b 404 915 563 875 490 915 b 178 668 263 915 178 822 l 178 649 l 49 649 l 49 524 l 178 524 l 176 0 l 308 0 l 308 524 l 499 524 l 499 649 l 308 649 z "},"g":{"ha":707,"x_min":0,"x_max":0,"o":"m 104 649 l 104 -14 l 169 -14 b 482 69 283 -14 389 3 l 482 -128 l 121 -128 l 93 -253 l 614 -253 l 614 649 z m 482 326 b 236 117 482 211 429 115 l 236 524 l 482 524 z "},"ģ":{"ha":707,"x_min":0,"x_max":0,"o":"m 433 746 b 513 976 435 826 460 908 l 421 1022 b 310 746 356 943 315 853 z m 104 649 l 104 -14 l 169 -14 b 482 69 283 -14 389 3 l 482 -128 l 121 -128 l 93 -253 l 614 -253 l 614 649 z m 482 326 b 236 117 482 211 429 115 l 236 524 l 482 524 z "},"h":{"ha":696,"x_min":0,"x_max":0,"o":"m 538 663 b 225 579 424 663 318 646 l 225 931 l 93 931 l 93 0 l 225 0 l 225 322 b 471 532 225 438 278 533 l 471 0 l 603 0 l 603 663 z "},"i":{"ha":271,"x_min":0,"x_max":0,"o":"m 69 760 l 204 760 l 204 885 l 69 885 z m 204 0 l 204 649 l 69 649 l 69 0 z "},"ı":{"ha":272,"x_min":0,"x_max":0,"o":"m 204 0 l 204 649 l 69 649 l 69 0 z "},"í":{"ha":272,"x_min":0,"x_max":0,"o":"m -3 811 l 28 722 l 257 803 l 222 900 z m 204 0 l 204 649 l 69 649 l 69 0 z "},"î":{"ha":272,"x_min":0,"x_max":0,"o":"m -37 710 l 138 779 l 313 710 l 313 811 l 138 885 l -37 811 z m 204 0 l 204 649 l 69 649 l 69 0 z "},"ï":{"ha":272,"x_min":0,"x_max":0,"o":"m 96 732 l 96 871 l -44 871 l -44 732 z m 179 732 l 319 732 l 319 871 l 179 871 z m 204 0 l 204 649 l 69 649 l 69 0 z "},"ì":{"ha":272,"x_min":0,"x_max":0,"o":"m 18 803 l 247 722 l 278 811 l 53 900 z m 204 0 l 204 649 l 69 649 l 69 0 z "},"ī":{"ha":272,"x_min":0,"x_max":0,"o":"m -12 751 l 288 751 l 288 842 l -12 842 z m 204 0 l 204 649 l 69 649 l 69 0 z "},"į":{"ha":271,"x_min":0,"x_max":0,"o":"m 69 885 l 69 760 l 204 760 l 204 885 z m 121 -75 b 199 0 115 -46 136 -21 l 204 0 l 204 649 l 69 649 l 69 0 l 67 0 b 7 -97 22 -29 7 -61 b 151 -204 7 -151 49 -204 b 228 -196 174 -204 200 -201 l 228 -99 b 121 -75 175 -114 128 -108 z "},"j":{"ha":296,"x_min":0,"x_max":0,"o":"m 94 760 l 229 760 l 229 885 l 94 885 z m -153 -192 b 15 -267 -111 -247 -40 -267 b 226 -19 157 -267 226 -174 l 228 649 l 96 649 l 96 -32 b 15 -144 96 -106 75 -144 b -60 -97 -4 -144 -43 -129 z "},"k":{"ha":708,"x_min":0,"x_max":0,"o":"m 508 349 b 608 639 576 400 608 500 l 608 646 l 468 646 l 468 596 b 226 356 468 431 372 356 l 226 931 l 97 931 l 97 0 l 226 0 l 226 249 l 472 249 l 508 0 l 639 0 l 592 349 z "},"ķ":{"ha":708,"x_min":0,"x_max":0,"o":"m 508 349 b 608 639 576 400 608 500 l 608 646 l 468 646 l 468 596 b 226 356 468 431 372 356 l 226 931 l 97 931 l 97 0 l 226 0 l 226 249 l 472 249 l 508 0 l 639 0 l 592 349 z m 322 -346 b 433 -69 388 -267 428 -176 l 310 -69 b 231 -300 308 -150 283 -232 z "},"l":{"ha":318,"x_min":0,"x_max":0,"o":"m 225 0 l 225 931 l 93 931 l 93 0 z "},"ĺ":{"ha":318,"x_min":0,"x_max":0,"o":"m 19 1093 l 50 1004 l 279 1085 l 244 1182 z m 225 0 l 225 931 l 93 931 l 93 0 z "},"ľ":{"ha":318,"x_min":0,"x_max":0,"o":"m 225 0 l 225 931 l 93 931 l 93 0 z m 329 931 b 306 738 328 894 319 815 l 383 708 b 447 931 418 797 442 881 z "},"ļ":{"ha":318,"x_min":0,"x_max":0,"o":"m 225 0 l 225 931 l 93 931 l 93 0 z m 96 -69 b 17 -300 94 -150 69 -232 l 108 -346 b 219 -69 174 -267 214 -176 z "},"ł":{"ha":318,"x_min":0,"x_max":0,"o":"m 225 542 l 225 931 l 93 931 l 93 479 l 22 446 l 22 335 l 93 368 l 93 0 l 225 0 l 225 431 l 318 474 l 318 585 z "},"m":{"ha":1108,"x_min":0,"x_max":0,"o":"m 931 663 b 607 269 679 663 618 571 l 603 157 b 554 108 601 131 581 108 b 506 157 528 108 507 131 l 501 269 b 178 663 490 571 429 663 b 93 660 151 663 124 661 l 93 0 l 225 0 l 225 528 b 365 349 321 528 360 488 l 369 235 b 554 -14 375 100 411 -14 b 739 235 697 -14 733 100 l 743 349 b 883 528 749 488 788 528 l 883 0 l 1015 0 l 1015 660 b 931 663 985 661 957 663 z "},"n":{"ha":696,"x_min":0,"x_max":0,"o":"m 538 663 b 225 579 424 663 318 646 l 225 649 l 93 649 l 93 0 l 225 0 l 225 322 b 471 532 225 438 278 533 l 471 0 l 603 0 l 603 663 z "},"ń":{"ha":696,"x_min":0,"x_max":0,"o":"m 443 900 l 218 811 l 249 722 l 478 803 z m 538 663 b 225 579 424 663 318 646 l 225 649 l 93 649 l 93 0 l 225 0 l 225 322 b 471 532 225 438 278 533 l 471 0 l 603 0 l 603 663 z "},"ň":{"ha":696,"x_min":0,"x_max":0,"o":"m 533 899 l 358 829 l 183 899 l 183 797 l 358 724 l 533 797 z m 538 663 b 225 579 424 663 318 646 l 225 649 l 93 649 l 93 0 l 225 0 l 225 322 b 471 532 225 438 278 533 l 471 0 l 603 0 l 603 663 z "},"ņ":{"ha":696,"x_min":0,"x_max":0,"o":"m 538 663 b 225 579 424 663 318 646 l 225 649 l 93 649 l 93 0 l 225 0 l 225 322 b 471 532 225 438 278 533 l 471 0 l 603 0 l 603 663 z m 289 -346 b 400 -69 354 -267 394 -176 l 276 -69 b 197 -300 275 -150 250 -232 z "},"ŋ":{"ha":696,"x_min":0,"x_max":0,"o":"m 538 663 b 225 579 424 663 318 646 l 225 649 l 93 649 l 93 0 l 225 0 l 225 322 b 471 532 225 438 278 533 l 471 -32 b 390 -144 471 -106 450 -144 b 315 -97 371 -144 332 -129 l 222 -192 b 390 -267 264 -247 335 -267 b 601 -19 532 -267 601 -174 l 601 0 l 603 0 l 603 663 z "},"ñ":{"ha":696,"x_min":0,"x_max":0,"o":"m 264 781 b 311 790 271 794 288 806 l 361 757 b 543 815 431 713 503 732 l 560 846 l 474 885 l 457 851 b 410 842 450 838 433 826 l 360 875 b 181 824 292 919 218 899 l 161 786 l 247 746 z m 538 663 b 225 579 424 663 318 646 l 225 649 l 93 649 l 93 0 l 225 0 l 225 322 b 471 532 225 438 278 533 l 471 0 l 603 0 l 603 663 z "},"o":{"ha":747,"x_min":0,"x_max":0,"o":"m 363 661 b 24 324 176 661 24 510 b 363 -14 24 138 176 -14 b 701 324 549 -14 701 138 b 363 661 701 511 549 661 z m 363 117 b 156 324 249 117 156 210 b 363 531 156 439 249 531 b 569 324 476 531 569 439 b 363 117 569 210 475 117 z "},"ó":{"ha":747,"x_min":0,"x_max":0,"o":"m 233 811 l 264 722 l 493 803 l 458 900 z m 363 661 b 24 324 176 661 24 510 b 363 -14 24 138 176 -14 b 701 324 549 -14 701 138 b 363 661 701 511 549 661 z m 363 117 b 156 324 249 117 156 210 b 363 531 156 439 249 531 b 569 324 476 531 569 439 b 363 117 569 210 475 117 z "},"ô":{"ha":747,"x_min":0,"x_max":0,"o":"m 199 710 l 374 779 l 549 710 l 549 811 l 374 885 l 199 811 z m 363 661 b 24 324 176 661 24 510 b 363 -14 24 138 176 -14 b 701 324 549 -14 701 138 b 363 661 701 511 549 661 z m 363 117 b 156 324 249 117 156 210 b 363 531 156 439 249 531 b 569 324 476 531 569 439 b 363 117 569 210 475 117 z "},"ö":{"ha":747,"x_min":0,"x_max":0,"o":"m 332 732 l 332 871 l 192 871 l 192 732 z m 415 732 l 556 732 l 556 871 l 415 871 z m 363 661 b 24 324 176 661 24 510 b 363 -14 24 138 176 -14 b 701 324 549 -14 701 138 b 363 661 701 511 549 661 z m 363 117 b 156 324 249 117 156 210 b 363 531 156 439 249 531 b 569 324 476 531 569 439 b 363 117 569 210 475 117 z "},"ò":{"ha":747,"x_min":0,"x_max":0,"o":"m 254 803 l 483 722 l 514 811 l 289 900 z m 363 661 b 24 324 176 661 24 510 b 363 -14 24 138 176 -14 b 701 324 549 -14 701 138 b 363 661 701 511 549 661 z m 363 117 b 156 324 249 117 156 210 b 363 531 156 439 249 531 b 569 324 476 531 569 439 b 363 117 569 210 475 117 z "},"ő":{"ha":747,"x_min":0,"x_max":0,"o":"m 256 757 l 335 757 l 386 949 l 274 949 z m 399 757 l 488 757 l 597 949 l 475 949 z m 363 661 b 24 324 176 661 24 510 b 363 -14 24 138 176 -14 b 701 324 549 -14 701 138 b 363 661 701 511 549 661 z m 363 117 b 156 324 249 117 156 210 b 363 531 156 439 249 531 b 569 324 476 531 569 439 b 363 117 569 210 475 117 z "},"ō":{"ha":747,"x_min":0,"x_max":0,"o":"m 224 751 l 524 751 l 524 842 l 224 842 z m 363 661 b 24 324 176 661 24 510 b 363 -14 24 138 176 -14 b 701 324 549 -14 701 138 b 363 661 701 511 549 661 z m 363 117 b 156 324 249 117 156 210 b 363 531 156 439 249 531 b 569 324 476 531 569 439 b 363 117 569 210 475 117 z "},"ø":{"ha":747,"x_min":0,"x_max":0,"o":"m 363 661 b 24 324 176 661 24 510 b 363 -14 24 138 176 -14 b 701 324 549 -14 701 138 b 363 661 701 511 549 661 z m 363 531 b 450 511 394 531 424 524 l 175 236 b 156 324 163 263 156 293 b 363 531 156 439 249 531 z m 363 117 b 265 140 328 117 294 125 l 546 421 b 569 324 561 392 569 358 b 363 117 569 210 475 117 z "},"õ":{"ha":747,"x_min":0,"x_max":0,"o":"m 472 851 b 425 842 465 838 449 826 l 375 875 b 196 824 307 919 233 899 l 176 786 l 263 746 l 279 781 b 326 790 286 794 303 806 l 376 757 b 558 815 446 713 518 732 l 575 846 l 489 885 z m 363 661 b 24 324 176 661 24 510 b 363 -14 24 138 176 -14 b 701 324 549 -14 701 138 b 363 661 701 511 549 661 z m 363 117 b 156 324 249 117 156 210 b 363 531 156 439 249 531 b 569 324 476 531 569 439 b 363 117 569 210 475 117 z "},"œ":{"ha":1099,"x_min":0,"x_max":0,"o":"m 701 257 b 815 225 733 235 767 225 b 1033 440 926 225 1033 310 b 810 663 1033 564 933 663 b 607 557 728 663 650 626 b 363 661 544 622 458 661 b 24 324 176 661 24 510 b 363 -14 24 138 176 -14 b 571 58 440 -14 514 13 l 571 0 l 1015 0 l 1015 125 l 701 125 z m 804 544 b 907 442 861 544 907 499 b 804 339 907 385 861 339 b 701 442 747 339 701 385 b 804 544 701 499 747 544 z m 363 117 b 156 324 249 117 156 210 b 363 531 156 439 249 531 b 569 324 476 531 569 439 b 363 117 569 210 475 117 z "},"p":{"ha":704,"x_min":0,"x_max":0,"o":"m 93 649 l 93 -265 l 225 -265 l 225 38 b 374 -14 264 7 311 -14 b 611 239 513 -14 611 100 l 611 649 z m 479 232 b 353 113 479 165 419 113 b 225 232 286 113 225 165 l 225 524 l 479 524 z "},"þ":{"ha":704,"x_min":0,"x_max":0,"o":"m 93 931 l 93 -265 l 225 -265 l 225 38 b 260 14 236 29 247 21 b 371 -14 292 -3 328 -14 l 372 -14 l 374 -14 b 611 239 513 -14 611 100 l 611 649 l 225 649 l 225 931 z m 479 232 b 353 113 479 165 419 113 b 225 232 286 113 225 165 l 225 524 l 479 524 z "},"q":{"ha":704,"x_min":0,"x_max":0,"o":"m 93 239 b 331 -14 93 100 192 -14 b 479 38 393 -14 440 7 l 479 -265 l 611 -265 l 611 649 l 93 649 z m 351 113 b 225 232 285 113 225 165 l 225 524 l 479 524 l 479 232 b 351 113 479 165 418 113 z "},"r":{"ha":510,"x_min":0,"x_max":0,"o":"m 225 649 l 93 649 l 93 0 l 225 0 l 225 319 b 468 531 225 451 300 531 l 468 663 b 225 572 369 663 290 638 z "},"ŕ":{"ha":510,"x_min":0,"x_max":0,"o":"m 368 900 l 143 811 l 174 722 l 403 803 z m 225 649 l 93 649 l 93 0 l 225 0 l 225 319 b 468 531 225 451 300 531 l 468 663 b 225 572 369 663 290 638 z "},"ř":{"ha":510,"x_min":0,"x_max":0,"o":"m 458 899 l 283 829 l 108 899 l 108 797 l 283 724 l 458 797 z m 225 649 l 93 649 l 93 0 l 225 0 l 225 319 b 468 531 225 451 300 531 l 468 663 b 225 572 369 663 290 638 z "},"ŗ":{"ha":510,"x_min":0,"x_max":0,"o":"m 225 649 l 93 649 l 93 0 l 225 0 l 225 319 b 468 531 225 451 300 531 l 468 663 b 225 572 369 663 290 638 z m 111 -346 b 222 -69 176 -267 217 -176 l 99 -69 b 19 -300 97 -150 72 -232 z "},"s":{"ha":597,"x_min":0,"x_max":0,"o":"m 538 103 b 194 393 538 282 451 413 l 193 436 b 304 538 192 490 236 538 b 422 444 340 538 403 518 l 543 506 b 304 663 490 622 390 663 b 64 429 163 663 64 583 l 64 256 b 406 125 368 310 406 211 l 406 124 l 64 124 l 64 0 l 538 0 z "},"ś":{"ha":597,"x_min":0,"x_max":0,"o":"m 39 811 l 69 722 l 299 803 l 264 900 z m 538 103 b 194 393 538 282 451 413 l 193 436 b 304 538 192 490 236 538 b 422 444 340 538 403 518 l 543 506 b 304 663 490 622 390 663 b 64 429 163 663 64 583 l 64 256 b 406 125 368 310 406 211 l 406 124 l 64 124 l 64 0 l 538 0 z "},"š":{"ha":597,"x_min":0,"x_max":0,"o":"m 263 724 l 438 797 l 438 899 l 263 829 l 88 899 l 88 797 z m 538 103 b 194 393 538 282 451 413 l 193 436 b 304 538 192 490 236 538 b 422 444 340 538 403 518 l 543 506 b 304 663 490 622 390 663 b 64 429 163 663 64 583 l 64 256 b 406 125 368 310 406 211 l 406 124 l 64 124 l 64 0 l 538 0 z "},"ş":{"ha":597,"x_min":0,"x_max":0,"o":"m 193 436 b 304 538 192 490 236 538 b 422 444 340 538 403 518 l 543 506 b 304 663 490 622 390 663 b 64 429 163 663 64 583 l 64 256 b 406 125 368 310 406 211 l 406 124 l 64 124 l 64 0 l 254 0 l 189 -146 l 314 -192 l 368 0 l 538 0 l 538 103 b 194 393 538 282 451 413 z "},"ș":{"ha":597,"x_min":0,"x_max":0,"o":"m 538 103 b 194 393 538 282 451 413 l 193 436 b 304 538 192 490 236 538 b 422 444 340 538 403 518 l 543 506 b 304 663 490 622 390 663 b 64 429 163 663 64 583 l 64 256 b 406 125 368 310 406 211 l 406 124 l 64 124 l 64 0 l 538 0 z m 244 -69 b 165 -300 243 -150 218 -232 l 257 -346 b 368 -69 322 -267 363 -176 z "},"ß":{"ha":788,"x_min":0,"x_max":0,"o":"m 476 424 b 681 565 479 486 543 565 b 372 931 701 742 578 931 b 88 603 200 931 88 815 l 88 0 l 219 0 l 219 603 b 374 806 219 735 276 806 b 547 664 475 806 535 738 b 335 315 414 622 326 525 b 586 139 553 331 586 225 l 586 125 l 343 125 l 343 0 l 733 0 l 733 89 b 476 424 733 254 611 400 z "},"t":{"ha":531,"x_min":0,"x_max":0,"o":"m 468 663 b 225 574 392 661 290 639 l 225 760 l 93 760 l 93 0 l 461 0 l 461 125 l 225 125 l 225 328 b 468 531 225 436 288 531 z "},"ŧ":{"ha":531,"x_min":0,"x_max":0,"o":"m 468 663 b 225 574 392 661 290 639 l 225 760 l 93 760 l 93 349 l 26 349 l 26 238 l 93 238 l 93 0 l 461 0 l 461 125 l 225 125 l 225 238 l 364 238 l 364 349 l 226 349 b 468 531 233 449 299 531 z "},"ť":{"ha":531,"x_min":0,"x_max":0,"o":"m 364 931 b 340 738 363 894 354 815 l 418 708 b 482 931 453 797 476 881 z m 468 663 b 225 574 392 661 290 639 l 225 760 l 93 760 l 93 0 l 461 0 l 461 125 l 225 125 l 225 328 b 468 531 225 436 288 531 z "},"ţ":{"ha":531,"x_min":0,"x_max":0,"o":"m 468 663 b 225 574 392 661 290 639 l 225 760 l 93 760 l 93 0 l 226 0 l 161 -146 l 286 -192 l 340 0 l 461 0 l 461 125 l 225 125 l 225 328 b 468 531 225 436 288 531 z "},"ț":{"ha":531,"x_min":0,"x_max":0,"o":"m 468 663 b 225 574 392 661 290 639 l 225 760 l 93 760 l 93 0 l 461 0 l 461 125 l 225 125 l 225 328 b 468 531 225 436 288 531 z m 217 -69 b 138 -300 215 -150 190 -232 l 229 -346 b 340 -69 294 -267 335 -176 z "},"u":{"ha":696,"x_min":0,"x_max":0,"o":"m 471 326 b 225 117 471 211 418 115 l 225 649 l 93 649 l 93 -14 l 158 -14 b 471 69 272 -14 378 3 l 471 0 l 603 0 l 603 649 l 471 649 z "},"ú":{"ha":696,"x_min":0,"x_max":0,"o":"m 424 900 l 199 811 l 229 722 l 458 803 z m 471 326 b 225 117 471 211 418 115 l 225 649 l 93 649 l 93 -14 l 158 -14 b 471 69 272 -14 378 3 l 471 0 l 603 0 l 603 649 l 471 649 z "},"û":{"ha":696,"x_min":0,"x_max":0,"o":"m 514 811 l 339 885 l 164 811 l 164 710 l 339 779 l 514 710 z m 471 326 b 225 117 471 211 418 115 l 225 649 l 93 649 l 93 -14 l 158 -14 b 471 69 272 -14 378 3 l 471 0 l 603 0 l 603 649 l 471 649 z "},"ü":{"ha":696,"x_min":0,"x_max":0,"o":"m 157 871 l 157 732 l 297 732 l 297 871 z m 381 871 l 381 732 l 521 732 l 521 871 z m 471 326 b 225 117 471 211 418 115 l 225 649 l 93 649 l 93 -14 l 158 -14 b 471 69 272 -14 378 3 l 471 0 l 603 0 l 603 649 l 471 649 z "},"ù":{"ha":696,"x_min":0,"x_max":0,"o":"m 254 900 l 219 803 l 449 722 l 479 811 z m 471 326 b 225 117 471 211 418 115 l 225 649 l 93 649 l 93 -14 l 158 -14 b 471 69 272 -14 378 3 l 471 0 l 603 0 l 603 649 l 471 649 z "},"ű":{"ha":696,"x_min":0,"x_max":0,"o":"m 239 949 l 221 757 l 300 757 l 351 949 z m 440 949 l 364 757 l 453 757 l 563 949 z m 471 326 b 225 117 471 211 418 115 l 225 649 l 93 649 l 93 -14 l 158 -14 b 471 69 272 -14 378 3 l 471 0 l 603 0 l 603 649 l 471 649 z "},"ū":{"ha":696,"x_min":0,"x_max":0,"o":"m 189 842 l 189 751 l 489 751 l 489 842 z m 471 326 b 225 117 471 211 418 115 l 225 649 l 93 649 l 93 -14 l 158 -14 b 471 69 272 -14 378 3 l 471 0 l 603 0 l 603 649 l 471 649 z "},"ų":{"ha":696,"x_min":0,"x_max":0,"o":"m 525 -75 b 603 0 519 -46 540 -21 l 603 649 l 471 649 l 471 326 b 225 117 471 211 418 115 l 225 649 l 93 649 l 93 -14 l 158 -14 b 471 69 272 -14 378 3 l 471 0 b 411 -97 426 -29 411 -61 b 556 -204 411 -151 453 -204 b 632 -196 578 -204 604 -201 l 632 -99 b 525 -75 579 -114 532 -108 z "},"ů":{"ha":696,"x_min":0,"x_max":0,"o":"m 339 696 b 468 826 410 696 468 754 b 339 956 468 897 410 956 b 208 826 267 956 208 897 b 339 696 208 754 267 696 z m 339 874 b 386 826 365 874 386 853 b 339 778 386 799 365 778 b 290 826 311 778 290 799 b 339 874 290 853 311 874 z m 471 326 b 225 117 471 211 418 115 l 225 649 l 93 649 l 93 -14 l 158 -14 b 471 69 272 -14 378 3 l 471 0 l 603 0 l 603 649 l 471 649 z "},"v":{"ha":644,"x_min":0,"x_max":0,"o":"m 454 654 l 454 588 b 410 283 454 493 449 372 b 335 183 392 239 367 207 b 222 138 304 160 267 146 l 222 654 l 93 654 l 93 0 l 157 0 b 347 35 229 0 294 13 b 483 147 401 61 447 99 b 588 588 553 243 588 389 l 588 654 z "},"w":{"ha":990,"x_min":0,"x_max":0,"o":"m 765 119 b 561 326 642 118 561 211 l 561 649 l 429 649 l 429 326 b 225 119 429 211 349 118 l 225 649 l 93 649 l 93 -14 l 158 -14 b 496 140 306 -14 396 11 b 832 -14 594 11 685 -14 l 897 -14 l 897 649 l 765 649 z "},"ẃ":{"ha":990,"x_min":0,"x_max":0,"o":"m 356 811 l 386 722 l 615 803 l 581 900 z m 765 119 b 561 326 642 118 561 211 l 561 649 l 429 649 l 429 326 b 225 119 429 211 349 118 l 225 649 l 93 649 l 93 -14 l 158 -14 b 496 140 306 -14 396 11 b 832 -14 594 11 685 -14 l 897 -14 l 897 649 l 765 649 z "},"ŵ":{"ha":990,"x_min":0,"x_max":0,"o":"m 321 710 l 496 779 l 671 710 l 671 811 l 496 885 l 321 811 z m 765 119 b 561 326 642 118 561 211 l 561 649 l 429 649 l 429 326 b 225 119 429 211 349 118 l 225 649 l 93 649 l 93 -14 l 158 -14 b 496 140 306 -14 396 11 b 832 -14 594 11 685 -14 l 897 -14 l 897 649 l 765 649 z "},"ẅ":{"ha":990,"x_min":0,"x_max":0,"o":"m 454 732 l 454 871 l 314 871 l 314 732 z m 538 732 l 678 732 l 678 871 l 538 871 z m 765 119 b 561 326 642 118 561 211 l 561 649 l 429 649 l 429 326 b 225 119 429 211 349 118 l 225 649 l 93 649 l 93 -14 l 158 -14 b 496 140 306 -14 396 11 b 832 -14 594 11 685 -14 l 897 -14 l 897 649 l 765 649 z "},"ẁ":{"ha":990,"x_min":0,"x_max":0,"o":"m 376 803 l 606 722 l 636 811 l 411 900 z m 765 119 b 561 326 642 118 561 211 l 561 649 l 429 649 l 429 326 b 225 119 429 211 349 118 l 225 649 l 93 649 l 93 -14 l 158 -14 b 496 140 306 -14 396 11 b 832 -14 594 11 685 -14 l 897 -14 l 897 649 l 765 649 z "},"x":{"ha":703,"x_min":0,"x_max":0,"o":"m 619 93 b 506 339 597 243 576 293 l 631 649 l 493 649 l 389 378 l 314 378 l 210 649 l 72 649 l 197 339 b 83 93 126 293 106 243 l 69 0 l 201 0 l 229 154 b 351 263 242 226 297 263 b 474 154 406 263 461 226 l 501 0 l 633 0 z "},"y":{"ha":707,"x_min":0,"x_max":0,"o":"m 482 326 b 236 117 482 211 429 115 l 236 649 l 104 649 l 104 -14 l 169 -14 b 482 69 283 -14 389 3 l 482 -128 l 121 -128 l 93 -253 l 614 -253 l 614 649 l 482 649 z "},"ý":{"ha":707,"x_min":0,"x_max":0,"o":"m 214 811 l 244 722 l 474 803 l 439 900 z m 482 326 b 236 117 482 211 429 115 l 236 649 l 104 649 l 104 -14 l 169 -14 b 482 69 283 -14 389 3 l 482 -128 l 121 -128 l 93 -253 l 614 -253 l 614 649 l 482 649 z "},"ŷ":{"ha":707,"x_min":0,"x_max":0,"o":"m 179 710 l 354 779 l 529 710 l 529 811 l 354 885 l 179 811 z m 482 326 b 236 117 482 211 429 115 l 236 649 l 104 649 l 104 -14 l 169 -14 b 482 69 283 -14 389 3 l 482 -128 l 121 -128 l 93 -253 l 614 -253 l 614 649 l 482 649 z "},"ÿ":{"ha":707,"x_min":0,"x_max":0,"o":"m 313 732 l 313 871 l 172 871 l 172 732 z m 396 732 l 536 732 l 536 871 l 396 871 z m 482 326 b 236 117 482 211 429 115 l 236 649 l 104 649 l 104 -14 l 169 -14 b 482 69 283 -14 389 3 l 482 -128 l 121 -128 l 93 -253 l 614 -253 l 614 649 l 482 649 z "},"ỳ":{"ha":707,"x_min":0,"x_max":0,"o":"m 235 803 l 464 722 l 494 811 l 269 900 z m 482 326 b 236 117 482 211 429 115 l 236 649 l 104 649 l 104 -14 l 169 -14 b 482 69 283 -14 389 3 l 482 -128 l 121 -128 l 93 -253 l 614 -253 l 614 649 l 482 649 z "},"z":{"ha":593,"x_min":0,"x_max":0,"o":"m 528 504 l 528 649 l 69 649 l 69 399 l 188 399 l 188 524 l 392 524 l 78 114 l 78 0 l 538 0 l 538 125 l 240 125 z "},"ź":{"ha":593,"x_min":0,"x_max":0,"o":"m 154 811 l 185 722 l 414 803 l 379 900 z m 528 504 l 528 649 l 69 649 l 69 399 l 188 399 l 188 524 l 392 524 l 78 114 l 78 0 l 538 0 l 538 125 l 240 125 z "},"ž":{"ha":593,"x_min":0,"x_max":0,"o":"m 294 724 l 469 797 l 469 899 l 294 829 l 119 899 l 119 797 z m 528 504 l 528 649 l 69 649 l 69 399 l 188 399 l 188 524 l 392 524 l 78 114 l 78 0 l 538 0 l 538 125 l 240 125 z "},"ż":{"ha":593,"x_min":0,"x_max":0,"o":"m 232 761 l 356 761 l 356 885 l 232 885 z m 528 504 l 528 649 l 69 649 l 69 399 l 188 399 l 188 524 l 392 524 l 78 114 l 78 0 l 538 0 l 538 125 l 240 125 z "},".":{"ha":265,"x_min":0,"x_max":0,"o":"m 63 142 l 63 0 l 203 0 l 203 142 z "},",":{"ha":264,"x_min":0,"x_max":0,"o":"m 78 140 b -14 -126 75 46 47 -49 l 76 -181 b 204 140 151 -89 199 15 z "},":":{"ha":265,"x_min":0,"x_max":0,"o":"m 63 550 l 63 408 l 203 408 l 203 550 z m 63 249 l 63 107 l 203 107 l 203 249 z "},";":{"ha":264,"x_min":0,"x_max":0,"o":"m 65 468 l 65 326 l 206 326 l 206 468 z m 78 143 b -14 -126 75 49 47 -49 l 76 -181 b 204 143 151 -89 199 18 z "},"…":{"ha":785,"x_min":0,"x_max":0,"o":"m 200 0 l 200 138 l 63 138 l 63 0 z m 461 0 l 461 138 l 324 138 l 324 0 z m 585 0 l 722 0 l 722 138 l 585 138 z "},"!":{"ha":293,"x_min":0,"x_max":0,"o":"m 93 247 l 200 247 l 211 861 l 82 861 z m 76 142 l 76 0 l 217 0 l 217 142 z "},"¡":{"ha":293,"x_min":0,"x_max":0,"o":"m 217 861 l 76 861 l 76 719 l 217 719 z m 211 0 l 200 614 l 93 614 l 82 0 z "},"?":{"ha":683,"x_min":0,"x_max":0,"o":"m 629 596 b 349 875 629 751 503 875 b 69 596 194 875 69 750 l 69 572 l 201 572 l 201 596 b 349 743 201 676 268 743 b 497 596 429 743 497 676 b 349 447 497 514 431 447 b 222 518 297 447 263 469 b 71 106 117 382 83 299 l 203 106 b 254 333 208 200 222 271 b 349 315 282 321 314 315 b 629 596 504 315 629 443 z m 279 142 l 279 0 l 419 0 l 419 142 z "},"¿":{"ha":683,"x_min":0,"x_max":0,"o":"m 419 735 l 419 876 l 279 876 l 279 735 z m 69 281 b 350 1 69 125 196 1 b 629 281 504 1 629 126 l 629 304 l 497 304 l 497 281 b 350 133 497 200 431 133 b 201 281 269 133 201 200 b 350 429 201 363 268 429 b 476 358 401 429 436 407 b 628 771 582 494 615 578 l 496 771 b 444 543 490 676 476 606 b 350 561 417 556 385 561 b 69 281 194 561 69 433 z "},"·":{"ha":242,"x_min":0,"x_max":0,"o":"m 57 438 l 57 308 l 185 308 l 185 438 z "},"•":{"ha":600,"x_min":0,"x_max":0,"o":"m 300 243 b 468 411 393 243 468 318 b 300 579 468 504 393 579 b 132 411 207 579 132 504 b 300 243 132 318 207 243 z "},"*":{"ha":451,"x_min":0,"x_max":0,"o":"m 194 497 l 238 603 l 301 511 l 303 513 l 304 513 l 379 576 l 382 576 l 306 661 l 410 681 l 385 781 l 267 744 l 267 861 l 167 861 l 179 742 l 63 774 l 63 772 l 42 674 l 161 656 l 101 538 z "},"#":{"ha":789,"x_min":0,"x_max":0,"o":"m 726 622 l 600 622 l 643 861 l 517 861 l 474 622 l 344 622 l 388 861 l 261 861 l 218 622 l 64 622 l 64 499 l 197 499 l 175 376 l 63 376 l 63 254 l 153 254 l 107 0 l 233 0 l 279 254 l 408 254 l 363 0 l 489 0 l 535 254 l 725 254 l 725 376 l 556 376 l 578 499 l 726 499 z m 429 376 l 300 376 l 322 499 l 453 499 z "},"/":{"ha":446,"x_min":0,"x_max":0,"o":"m 35 -49 l 157 -49 l 411 890 l 288 890 z "},"\\":{"ha":446,"x_min":0,"x_max":0,"o":"m 35 890 l 289 -49 l 411 -49 l 158 890 z "},"(":{"ha":394,"x_min":0,"x_max":0,"o":"m 292 944 b 56 651 135 901 56 808 l 56 136 b 292 -157 56 -21 138 -112 l 326 -17 b 185 136 225 0 185 42 l 185 651 b 326 804 185 750 231 792 z "},")":{"ha":394,"x_min":0,"x_max":0,"o":"m 339 651 b 103 944 339 808 260 901 l 68 804 b 210 651 164 792 210 750 l 210 136 b 68 -17 210 42 169 0 l 103 -157 b 339 136 257 -112 339 -21 z "},"{":{"ha":429,"x_min":0,"x_max":0,"o":"m 363 801 l 363 922 l 129 922 l 129 528 l 57 406 l 129 285 l 129 -110 l 363 -110 l 363 11 l 250 11 l 250 318 l 197 406 l 250 493 l 250 801 z "},"}":{"ha":429,"x_min":0,"x_max":0,"o":"m 169 493 l 222 406 l 169 318 l 169 11 l 57 11 l 57 -110 l 290 -110 l 290 285 l 363 406 l 290 528 l 290 922 l 57 922 l 57 801 l 169 801 z "},"[":{"ha":429,"x_min":0,"x_max":0,"o":"m 363 801 l 363 922 l 129 922 l 129 -110 l 363 -110 l 363 11 l 250 11 l 250 801 z "},"]":{"ha":429,"x_min":0,"x_max":0,"o":"m 179 11 l 67 11 l 67 -110 l 300 -110 l 300 922 l 67 922 l 67 801 l 179 801 z "},"-":{"ha":496,"x_min":0,"x_max":0,"o":"m 63 369 l 433 369 l 433 481 l 63 481 z "},"–":{"ha":810,"x_min":0,"x_max":0,"o":"m 63 369 l 747 369 l 747 481 l 63 481 z "},"—":{"ha":1125,"x_min":0,"x_max":0,"o":"m 63 365 l 1063 365 l 1063 476 l 63 476 z "},"_":{"ha":658,"x_min":0,"x_max":0,"o":"m 63 -104 l 599 -103 l 599 0 l 63 0 z "},"‚":{"ha":307,"x_min":0,"x_max":0,"o":"m 71 128 b -12 -115 68 42 43 -44 l 69 -164 b 186 128 138 -81 181 14 z "},"„":{"ha":307,"x_min":0,"x_max":0,"o":"m 71 128 b -12 -115 68 42 43 -44 l 69 -164 b 186 128 138 -81 181 14 z "},"“":{"ha":510,"x_min":0,"x_max":0,"o":"m 186 576 b 232 832 172 671 185 754 l 132 886 b 60 576 74 794 43 701 z m 408 576 b 454 832 394 671 407 754 l 354 886 b 282 576 296 794 265 701 z "},"”":{"ha":496,"x_min":0,"x_max":0,"o":"m 101 861 b 56 606 115 767 103 683 l 156 551 b 228 861 214 643 244 736 z m 310 861 b 264 606 324 767 311 683 l 364 551 b 436 861 422 643 453 736 z "},"‘":{"ha":288,"x_min":0,"x_max":0,"o":"m 186 576 b 232 832 176 671 189 754 l 132 886 b 60 576 74 794 43 701 z "},"’":{"ha":288,"x_min":0,"x_max":0,"o":"m 101 861 b 56 606 115 767 103 683 l 156 551 b 228 861 214 643 244 736 z "},"«":{"ha":603,"x_min":0,"x_max":0,"o":"m 160 649 l 14 425 l 161 199 l 286 199 l 153 425 l 286 649 z m 546 649 l 421 649 l 274 425 l 421 199 l 547 199 l 414 425 z "},"»":{"ha":631,"x_min":0,"x_max":0,"o":"m 83 199 l 210 199 l 357 425 l 210 649 l 85 649 l 217 425 z m 478 425 l 344 199 l 469 199 l 617 425 l 471 649 l 344 649 z "},"‹":{"ha":456,"x_min":0,"x_max":0,"o":"m 249 706 l 14 438 l 250 167 l 400 167 l 164 438 l 399 706 z "},"›":{"ha":456,"x_min":0,"x_max":0,"o":"m 292 438 l 56 167 l 206 167 l 442 438 l 207 706 l 57 706 z "},"\"":{"ha":443,"x_min":0,"x_max":0,"o":"m 178 540 l 192 861 l 63 861 l 76 540 z m 265 540 l 367 540 l 381 861 l 251 861 z "},"'":{"ha":256,"x_min":0,"x_max":0,"o":"m 76 538 l 179 538 l 193 860 l 63 860 z "},"€":{"ha":769,"x_min":0,"x_max":0,"o":"m 489 256 l 517 367 l 264 367 l 264 457 l 540 457 l 567 568 l 264 568 l 264 597 b 408 749 264 696 324 749 b 590 647 465 749 550 717 l 629 800 b 410 874 572 849 488 874 b 132 607 232 874 132 764 l 132 568 l 56 568 l 36 457 l 132 457 l 132 367 l 47 367 l 28 256 l 132 256 l 132 0 l 606 0 l 606 125 l 264 125 l 264 256 z "},"¢":{"ha":608,"x_min":0,"x_max":0,"o":"m 213 468 b 306 565 213 522 251 565 b 411 472 342 565 392 546 l 532 533 b 360 686 489 628 428 672 l 360 861 l 249 861 l 249 683 b 78 457 150 661 78 585 l 78 158 l 76 157 l 249 157 l 249 0 l 360 0 l 360 157 l 499 157 l 499 282 l 213 282 z "},"$":{"ha":706,"x_min":0,"x_max":0,"o":"m 224 542 b 354 651 224 599 269 651 b 518 533 419 651 486 625 l 629 599 b 415 771 588 696 508 754 l 415 919 l 283 919 l 283 768 b 92 510 163 740 90 642 l 93 356 l 158 361 b 476 206 326 375 476 383 l 90 206 l 90 81 l 283 81 l 283 -86 l 415 -86 l 415 81 l 608 81 l 608 214 b 224 486 608 436 432 503 z "},"£":{"ha":747,"x_min":0,"x_max":0,"o":"m 276 135 b 351 360 336 221 353 294 l 603 360 l 631 478 l 331 478 b 297 629 315 532 297 581 b 431 750 297 696 347 750 b 588 632 496 750 556 724 l 699 697 b 432 875 649 815 536 875 b 169 624 283 875 169 785 b 192 478 169 565 181 518 l 118 478 l 90 360 l 225 360 b 106 86 236 289 218 214 l 189 -32 b 617 -17 360 63 472 81 l 688 103 b 276 135 572 174 403 194 z "},"¥":{"ha":761,"x_min":0,"x_max":0,"o":"m 681 861 l 550 861 l 549 564 b 382 504 482 558 444 542 b 215 564 319 542 282 558 l 214 861 l 83 861 l 85 447 b 317 400 219 447 263 436 l 317 360 l 169 360 l 169 263 l 317 263 l 317 207 l 169 207 l 169 110 l 315 110 l 315 0 l 449 0 l 449 110 l 592 110 l 592 207 l 447 207 l 447 263 l 592 263 l 592 360 l 447 360 l 447 400 b 679 447 501 436 544 447 z "},"+":{"ha":672,"x_min":0,"x_max":0,"o":"m 393 653 l 281 653 l 281 456 l 89 456 l 89 343 l 281 343 l 281 156 l 393 156 l 393 343 l 586 343 l 586 456 l 393 456 z "},"−":{"ha":722,"x_min":0,"x_max":0,"o":"m 89 461 l 89 338 l 636 338 l 636 461 z "},"×":{"ha":651,"x_min":0,"x_max":0,"o":"m 565 554 l 478 642 l 325 489 l 176 638 l 89 550 l 238 401 l 92 256 l 179 168 l 325 314 l 475 164 l 563 251 l 413 401 z "},"=":{"ha":656,"x_min":0,"x_max":0,"o":"m 97 458 l 531 458 l 558 569 l 125 569 z m 531 233 l 558 344 l 125 344 l 97 233 z "},">":{"ha":558,"x_min":0,"x_max":0,"o":"m 138 782 l 56 703 l 338 419 l 56 139 l 138 57 l 503 419 z "},"<":{"ha":558,"x_min":0,"x_max":0,"o":"m 421 57 l 503 139 l 221 419 l 503 703 l 421 782 l 56 419 z "},"~":{"ha":632,"x_min":0,"x_max":0,"o":"m 442 444 b 381 432 433 426 411 411 l 315 475 b 81 408 226 533 129 506 l 56 358 l 168 306 l 190 351 b 251 364 199 369 221 385 l 317 321 b 556 397 408 263 503 288 l 576 438 l 464 488 z "},"^":{"ha":518,"x_min":0,"x_max":0,"o":"m 68 607 l 263 700 l 457 607 l 457 701 l 263 801 l 68 701 z "},"%":{"ha":857,"x_min":0,"x_max":0,"o":"m 794 525 l 794 881 l 663 879 l 664 639 b 138 17 379 596 138 321 l 138 0 l 268 0 l 268 17 b 794 525 268 303 493 525 z m 224 528 b 397 700 319 528 397 606 b 221 875 397 799 318 875 b 49 700 129 875 49 801 b 224 528 49 606 128 528 z m 224 646 b 167 703 192 646 167 671 b 224 758 167 733 192 758 b 279 703 254 758 279 733 b 224 646 279 671 254 646 z m 650 -12 b 824 160 746 -12 824 65 b 647 335 824 258 744 335 b 475 160 556 335 475 261 b 650 -12 475 65 554 -12 z m 650 106 b 593 163 618 106 593 131 b 650 218 593 193 618 218 b 706 163 681 218 706 193 b 650 106 706 131 681 106 z "},"‰":{"ha":1238,"x_min":0,"x_max":0,"o":"m 794 525 l 794 881 l 663 879 l 664 639 b 138 17 379 596 138 321 l 138 0 l 268 0 l 268 17 b 794 525 268 303 493 525 z m 224 528 b 397 700 319 528 397 606 b 221 875 397 799 318 875 b 49 700 129 875 49 801 b 224 528 49 606 128 528 z m 224 646 b 167 703 192 646 167 671 b 224 758 167 733 192 758 b 279 703 254 758 279 733 b 224 646 279 671 254 646 z m 650 -12 b 824 160 746 -12 824 65 b 647 335 824 258 744 335 b 475 160 556 335 475 261 b 650 -12 475 65 554 -12 z m 1050 -12 b 1224 160 1146 -12 1224 65 b 1047 335 1224 258 1144 335 b 875 160 956 335 875 261 b 1050 -12 875 65 954 -12 z m 650 106 b 593 163 618 106 593 131 b 650 218 593 193 618 218 b 706 163 681 218 706 193 b 650 106 706 131 681 106 z m 1050 106 b 993 163 1018 106 993 131 b 1050 218 993 193 1018 218 b 1106 163 1081 218 1106 193 b 1050 106 1106 131 1081 106 z "},"@":{"ha":969,"x_min":0,"x_max":0,"o":"m 650 615 l 606 615 b 317 356 418 615 317 488 b 592 106 317 221 419 106 b 868 396 760 106 868 210 l 868 861 l 565 861 b 60 358 286 861 60 636 b 631 -143 60 78 285 -153 l 785 -139 l 813 -14 l 631 -18 b 196 358 361 -24 196 154 b 565 736 196 561 361 736 l 732 736 l 732 368 b 592 225 732 260 663 225 b 453 363 508 225 453 282 b 593 490 453 419 494 490 l 650 490 z "},"&":{"ha":913,"x_min":0,"x_max":0,"o":"m 725 522 b 676 351 714 456 699 400 b 576 468 649 404 615 442 b 651 635 622 508 651 567 b 404 875 651 768 540 875 b 157 635 267 875 157 768 b 229 469 157 568 185 510 b 96 231 149 419 96 332 l 96 0 l 324 0 b 633 106 435 0 543 33 b 654 0 640 74 647 39 l 783 0 b 733 214 768 83 751 154 b 846 497 783 288 822 381 z m 404 750 b 519 635 468 750 519 704 b 404 515 519 565 468 515 b 289 635 339 515 289 565 b 404 750 289 704 339 750 z m 314 125 l 228 125 l 228 231 b 392 406 228 326 293 406 b 597 232 485 406 549 358 b 314 125 524 157 425 125 z "},"¶":{"ha":790,"x_min":0,"x_max":0,"o":"m 315 861 b 117 781 240 861 169 833 b 36 582 64 728 36 657 b 117 385 36 508 64 438 b 315 303 169 332 240 303 b 351 306 328 303 339 304 l 351 -250 l 482 -250 l 482 861 z m 578 -253 l 689 -253 l 689 861 l 578 861 z "},"§":{"ha":710,"x_min":0,"x_max":0,"o":"m 613 311 b 228 583 613 533 436 600 l 228 597 b 358 749 228 696 274 749 b 522 631 424 749 490 722 l 633 696 b 360 874 583 814 478 874 b 96 607 196 874 94 764 l 97 453 l 97 358 b 482 86 97 136 274 69 l 482 72 b 351 -79 482 -26 436 -79 b 188 39 286 -79 219 -53 l 76 -26 b 350 -204 126 -144 232 -204 b 614 63 514 -204 615 -94 l 613 217 z m 229 367 l 229 464 b 481 303 368 471 481 457 l 479 247 l 479 206 b 229 367 340 199 229 214 z "},"©":{"ha":1067,"x_min":0,"x_max":0,"o":"m 533 925 b 60 432 249 919 60 732 b 533 -61 60 132 249 -57 b 1007 432 817 -57 1007 132 b 533 925 1007 732 817 919 z m 533 51 b 172 432 311 54 172 193 b 533 813 172 671 311 810 b 894 432 756 810 894 671 b 533 51 894 193 756 54 z m 538 567 b 647 461 585 567 628 543 l 764 513 b 526 685 726 635 635 685 b 310 461 410 685 310 613 l 310 403 b 526 179 310 250 410 179 b 764 353 635 179 726 231 l 647 403 b 538 296 628 321 585 296 b 436 414 474 296 436 336 l 436 449 b 538 567 436 526 474 567 z "},"®":{"ha":594,"x_min":0,"x_max":0,"o":"m 297 875 b 56 615 163 874 56 790 l 56 603 b 297 344 56 418 163 344 b 539 603 432 344 539 418 l 539 615 b 297 875 539 790 432 874 z m 488 601 b 297 393 488 440 403 393 b 107 601 192 393 107 440 l 107 614 b 297 824 107 764 192 824 b 488 614 403 824 488 764 z m 408 660 b 296 769 408 719 357 769 b 182 660 235 769 182 719 l 182 475 l 254 475 l 254 558 b 296 550 267 553 281 550 b 314 551 301 550 308 550 b 350 475 332 525 343 500 l 426 475 b 372 578 413 519 392 553 b 408 660 394 599 408 628 z m 251 660 b 296 703 251 683 272 703 b 338 660 319 703 338 683 b 296 614 338 632 319 614 b 251 660 272 614 251 632 z "},"°":{"ha":413,"x_min":0,"x_max":0,"o":"m 207 572 b 357 724 289 572 357 640 b 207 874 357 806 289 874 b 56 724 124 874 56 806 b 207 572 56 640 124 572 z m 207 679 b 163 724 182 679 163 699 b 207 767 163 747 182 767 b 250 724 231 767 250 747 b 207 679 250 699 231 679 z "},"|":{"ha":233,"x_min":0,"x_max":0,"o":"m 57 -74 l 168 -74 l 168 906 l 57 906 z "},"¦":{"ha":233,"x_min":0,"x_max":0,"o":"m 57 479 l 168 479 l 168 907 l 57 907 z m 57 -74 l 168 -74 l 168 354 l 57 354 z "},"†":{"ha":560,"x_min":0,"x_max":0,"o":"m 431 774 b 346 740 400 764 371 754 l 346 976 l 214 976 l 214 747 b 129 781 189 761 160 771 l 64 801 l 28 672 l 92 657 b 214 542 169 639 214 607 l 214 -318 l 346 -318 l 346 535 b 468 650 346 600 390 632 l 532 665 l 496 794 z "},"‡":{"ha":560,"x_min":0,"x_max":0,"o":"m 346 535 b 468 650 346 600 390 632 l 532 665 l 496 794 l 431 774 b 346 740 400 764 371 754 l 346 976 l 214 976 l 214 747 b 129 781 189 761 160 771 l 64 801 l 28 672 l 92 657 b 214 542 169 639 214 607 l 214 236 b 92 121 214 171 169 139 l 28 106 l 64 -24 l 129 -3 b 214 31 160 7 189 17 l 214 -199 l 346 -199 l 346 38 b 431 4 371 24 400 14 l 496 -17 l 532 113 l 468 128 b 346 243 390 146 346 178 z "},"№":{"ha":1475,"x_min":0,"x_max":0,"o":"m 656 111 b 533 286 579 118 549 190 l 494 535 b 213 875 463 736 413 875 l 101 875 l 101 0 l 226 0 l 226 750 b 368 525 326 744 347 650 l 411 261 b 672 -14 438 103 500 -14 l 781 -14 l 781 861 l 656 861 z m 1140 875 b 926 661 1022 875 926 779 b 1140 449 926 544 1022 449 b 1354 661 1258 449 1354 544 b 1140 875 1354 781 1258 875 z m 1140 558 b 1038 661 1083 558 1038 604 b 1140 765 1038 719 1083 765 b 1243 661 1197 765 1243 719 b 1140 558 1243 606 1196 558 z m 1317 385 b 1138 308 1272 342 1201 308 b 961 385 1078 308 1006 342 l 901 282 b 1138 194 968 228 1053 194 b 1378 283 1225 194 1308 228 z "},"̈":{"ha":0,"x_min":0,"x_max":0,"o":"m -303 732 l -303 871 l -443 871 l -443 732 z m -219 732 l -79 732 l -79 871 l -219 871 z "},"̇":{"ha":0,"x_min":0,"x_max":0,"o":"m -262 761 l -139 761 l -139 885 l -262 885 z "},"̀":{"ha":0,"x_min":0,"x_max":0,"o":"m -299 803 l -69 722 l -39 811 l -264 900 z "},"́":{"ha":0,"x_min":0,"x_max":0,"o":"m -326 811 l -296 722 l -67 803 l -101 900 z "},"̋":{"ha":0,"x_min":0,"x_max":0,"o":"m -532 757 l -453 757 l -401 949 l -514 949 z m -389 757 l -300 757 l -190 949 l -312 949 z "},"̂":{"ha":0,"x_min":0,"x_max":0,"o":"m -437 710 l -262 779 l -87 710 l -87 811 l -262 885 l -437 811 z "},"̌":{"ha":0,"x_min":0,"x_max":0,"o":"m -262 724 l -87 797 l -87 899 l -262 829 l -437 899 l -437 797 z "},"̆":{"ha":0,"x_min":0,"x_max":0,"o":"m -303 740 b -139 906 -212 740 -139 815 l -236 906 b -303 838 -236 868 -267 838 b -371 906 -340 838 -371 868 l -468 906 b -303 740 -468 815 -393 740 z "},"̊":{"ha":0,"x_min":0,"x_max":0,"o":"m -258 696 b -129 826 -187 696 -129 754 b -258 956 -129 897 -187 956 b -389 826 -331 956 -389 897 b -258 696 -389 754 -331 696 z m -258 778 b -307 826 -286 778 -307 799 b -258 874 -307 853 -286 874 b -211 826 -232 874 -211 853 b -258 778 -211 799 -232 778 z "},"̃":{"ha":0,"x_min":0,"x_max":0,"o":"m -303 851 b -350 842 -310 838 -326 826 l -400 875 b -579 824 -468 919 -542 899 l -599 786 l -512 746 l -496 781 b -449 790 -489 794 -472 806 l -399 757 b -217 815 -329 713 -257 732 l -200 846 l -286 885 z "},"̄":{"ha":0,"x_min":0,"x_max":0,"o":"m -397 751 l -97 751 l -97 842 l -397 842 z "},"̒":{"ha":0,"x_min":0,"x_max":0,"o":"m -218 746 b -139 976 -217 826 -192 908 l -231 1022 b -342 746 -296 943 -336 853 z "},"̦":{"ha":0,"x_min":0,"x_max":0,"o":"m -524 -69 b -603 -300 -525 -150 -550 -232 l -511 -346 b -400 -69 -446 -267 -406 -176 z "},"̧":{"ha":0,"x_min":0,"x_max":0,"o":"m -461 -146 l -336 -192 l -279 8 l -376 43 z "},"̨":{"ha":0,"x_min":0,"x_max":0,"o":"m -310 0 b -369 -97 -354 -29 -369 -61 b -225 -204 -369 -151 -328 -204 b -149 -196 -203 -204 -176 -201 l -149 -99 b -256 -75 -201 -114 -249 -108 b -178 0 -261 -46 -240 -21 z "},"¨":{"ha":544,"x_min":0,"x_max":0,"o":"m 242 732 l 242 871 l 101 871 l 101 732 z m 325 732 l 465 732 l 465 871 l 325 871 z "},"`":{"ha":336,"x_min":0,"x_max":0,"o":"m 38 803 l 267 722 l 297 811 l 72 900 z "},"´":{"ha":365,"x_min":0,"x_max":0,"o":"m 39 811 l 69 722 l 299 803 l 264 900 z "},"ˆ":{"ha":525,"x_min":0,"x_max":0,"o":"m 88 710 l 263 779 l 438 710 l 438 811 l 263 885 l 88 811 z "},"ˇ":{"ha":833,"x_min":0,"x_max":0,"o":"m 263 724 l 438 797 l 438 899 l 263 829 l 88 899 l 88 797 z "},"˚":{"ha":833,"x_min":0,"x_max":0,"o":"m 260 696 b 389 826 331 696 389 754 b 260 956 389 897 331 956 b 129 826 188 956 129 897 b 260 696 129 754 188 696 z m 260 778 b 211 826 232 778 211 799 b 260 874 211 853 232 874 b 307 826 286 874 307 853 b 260 778 307 799 286 778 z "},"˜":{"ha":833,"x_min":0,"x_max":0,"o":"m 531 851 b 483 842 524 838 507 826 l 433 875 b 254 824 365 919 292 899 l 235 786 l 321 746 l 338 781 b 385 790 344 794 361 806 l 435 757 b 617 815 504 713 576 732 l 633 846 l 547 885 z "},"¸":{"ha":617,"x_min":0,"x_max":0,"o":"m 156 -146 l 281 -192 l 338 8 l 240 43 z "},"":{"ha":1950,"x_min":0,"x_max":0,"o":"m 1811 931 l 1811 -69 l 139 -69 l 139 931 z m 1294 72 l 1294 500 l 1451 500 l 1451 601 l 1294 601 l 1294 628 b 1378 719 1294 689 1329 719 b 1460 664 1407 719 1446 701 l 1560 714 b 1378 819 1517 788 1447 819 b 1188 618 1261 819 1188 743 l 1188 601 l 1083 601 b 929 582 1026 601 976 593 l 929 669 l 822 669 l 822 539 b 618 322 744 493 682 424 b 436 179 563 228 528 179 l 436 603 l 329 603 l 329 72 l 436 72 b 711 267 593 72 654 176 b 822 411 747 329 783 376 l 822 72 z m 929 476 b 1104 500 979 493 1036 500 l 1188 500 l 1188 174 l 929 174 z m 1458 203 l 1458 72 l 1589 72 l 1589 203 z "}}}
